<svg xmlns="http://www.w3.org/2000/svg" viewBox="0 0 117.07 45.89"><defs><style>.cls-1{fill:none;stroke:#fff;stroke-miterlimit:10;stroke-width:0.75px;}.cls-2{fill:#fff;}</style></defs><g id="Layer_2" data-name="Layer 2"><g id="Layer_1-2" data-name="Layer 1"><path class="cls-1" d="M30.77,2.11A1.68,1.68,0,0,1,31.28.88a1.64,1.64,0,0,1,1.23-.5,1.73,1.73,0,0,1,1.23.5,1.71,1.71,0,0,1,.5,1.23V28.59a16.35,16.35,0,0,1-5,12,16.34,16.34,0,0,1-12,4.95,16.38,16.38,0,0,1-12-4.95,16.4,16.4,0,0,1-4.95-12V2.11A1.67,1.67,0,0,1,.88.88,1.67,1.67,0,0,1,2.11.38a1.64,1.64,0,0,1,1.23.5,1.68,1.68,0,0,1,.51,1.23V28.59a12.93,12.93,0,0,0,3.94,9.5A13,13,0,0,0,17.29,42a13,13,0,0,0,9.54-3.95"/><path class="cls-2" d="M78,17.31a31.07,31.07,0,0,0,6.74-2.68,7.47,7.47,0,0,0,.81-.53,1.24,1.24,0,0,1,.24-.16h.09s.08,0,.12.08,0,0,0,.08,0,0,0,.09a.69.69,0,0,1-.25.24,7.27,7.27,0,0,1-1.34.85A35.27,35.27,0,0,1,78,17.92a3.38,3.38,0,0,1-1.41.24,1.93,1.93,0,0,1-1.84-1.95V16a4.82,4.82,0,0,1,.45-1.66,14.67,14.67,0,0,1,1.18-2.11c.12-.13.2-.25.28-.33a.71.71,0,0,1,.45-.24.65.65,0,0,1,.36.12.58.58,0,0,1,.33.53.68.68,0,0,1,0,.28,6.53,6.53,0,0,1-.37.81c-.36.65-.73,1.3-1,2a4.36,4.36,0,0,0-.37,1,1.11,1.11,0,0,0,0,.36c0,.49.29.77.93.77h.33A2.39,2.39,0,0,0,78,17.31Zm-.12-8.16A18.75,18.75,0,0,1,79,6.27a1.65,1.65,0,0,1,.28-.41.58.58,0,0,1,.49-.24.54.54,0,0,1,.32.08.61.61,0,0,1,.29.53.68.68,0,0,1,0,.28,9.54,9.54,0,0,1-.61,1A18,18,0,0,0,78.8,9a.75.75,0,0,0-.08.32V9.6a.44.44,0,0,1-.44.49h-.09c-.28,0-.44-.25-.44-.61C77.79,9.4,77.79,9.27,77.83,9.15Z"/><path class="cls-2" d="M97.69,11.48a.31.31,0,0,0-.21,0,35.33,35.33,0,0,0-3.69.87,16.52,16.52,0,0,1-3.76.67c-.26,0-.3,0-.3.17v.17a2.5,2.5,0,0,1,0,.54,4.8,4.8,0,0,1-.83,2.56,5.71,5.71,0,0,1-1.26,1.34,2.64,2.64,0,0,1-1.55.58,1.26,1.26,0,0,1-.38,0,1.8,1.8,0,0,1-1.29-1.05,3.16,3.16,0,0,1-.21-1,3,3,0,0,1,.33-1.38,4,4,0,0,1,1.63-1.72,1.43,1.43,0,0,1,.84-.25h.17a.91.91,0,0,1,.67.42.38.38,0,0,1,0,.21.39.39,0,0,1-.33.37,2.85,2.85,0,0,0-2.1,2.18,1.36,1.36,0,0,0,0,.42,1,1,0,0,0,.09.5.7.7,0,0,0,.71.55h.12a2.18,2.18,0,0,0,1-.46,4.14,4.14,0,0,0,1.59-2.31,2,2,0,0,0,.08-.67,1.93,1.93,0,0,0-.08-.67,1.27,1.27,0,0,0-.38-.67.35.35,0,0,1-.17-.29.29.29,0,0,1,.09-.21.42.42,0,0,1,.29-.17.63.63,0,0,1,.25.09s0,0,0,0a1.5,1.5,0,0,0,1.13.42,6.86,6.86,0,0,0,1-.09,19.11,19.11,0,0,0,4.56-1.17c.67-.21,1.3-.46,2-.67l.5-.12h.12a.76.76,0,0,1,.8.75v.21a2.12,2.12,0,0,1-.17.54c-.25.59-.54,1.18-.83,1.72-.8,1.63-1.6,3.27-2.27,4.94a1.11,1.11,0,0,0-.16.54v.09a2,2,0,0,0,.58-.38A23.41,23.41,0,0,0,98.19,17a52.73,52.73,0,0,1,5.23-5.44A14,14,0,0,1,105,10.27a4.24,4.24,0,0,1,1.3-.67,1.64,1.64,0,0,1,.42,0,1,1,0,0,1,1,.88,3.92,3.92,0,0,1,.09,1c0,.46,0,.92,0,1.43A2.68,2.68,0,0,0,109.53,15a6.27,6.27,0,0,0,1.76.38h.63a17.64,17.64,0,0,0,3.31-.3,5.86,5.86,0,0,0,1.46-.5s.13,0,.21-.08a.17.17,0,0,1,.17.08v.09s0,0,0,.08a1.37,1.37,0,0,1-.38.29,5.6,5.6,0,0,1-1.38.42,17.3,17.3,0,0,1-3.56.42c-.33,0-.63,0-.92,0a4.34,4.34,0,0,1-2.55-.92A3.27,3.27,0,0,1,107,13.07a9.63,9.63,0,0,1-.17-1.46v-.88c0-.34-.08-.46-.29-.46a.55.55,0,0,0-.25,0,3.8,3.8,0,0,0-1.13.59,27.7,27.7,0,0,0-3.47,2.89c-1.51,1.46-2.85,3.09-4.23,4.68a11.71,11.71,0,0,1-.92,1.05,2.33,2.33,0,0,1-.88.67.88.88,0,0,1-.3,0,.8.8,0,0,1-.79-.62v-.67a11.4,11.4,0,0,1,1-2.85c.67-1.38,1.38-2.76,2.14-4.1.08-.17.21-.3.21-.46A.34.34,0,0,0,97.69,11.48Z"/><path class="cls-2" d="M43.43,9.76a.63.63,0,0,0-.35.07,58.76,58.76,0,0,0-6,1.44,27.69,27.69,0,0,1-6.17,1.1c-.41.06-.48.06-.48.27v.27a3.86,3.86,0,0,1,.07.89A7.85,7.85,0,0,1,29.1,18a9,9,0,0,1-2.05,2.19,4.31,4.31,0,0,1-2.54,1,1.88,1.88,0,0,1-.62-.07,3,3,0,0,1-2.12-1.71,5.35,5.35,0,0,1-.34-1.72A5.05,5.05,0,0,1,22,15.38a6.67,6.67,0,0,1,2.68-2.81A2.34,2.34,0,0,1,26,12.16h.27a1.47,1.47,0,0,1,1.1.69.58.58,0,0,1,.07.34.64.64,0,0,1-.55.61c-2,.42-2.81,1.86-3.43,3.57a2.06,2.06,0,0,0-.07.68,1.74,1.74,0,0,0,.14.83,1.17,1.17,0,0,0,1.16.89h.21A3.43,3.43,0,0,0,26.5,19a6.65,6.65,0,0,0,2.6-3.77,3.11,3.11,0,0,0,.14-1.09,3,3,0,0,0-.14-1.1,2,2,0,0,0-.62-1.1.59.59,0,0,1-.27-.48.53.53,0,0,1,.14-.34.66.66,0,0,1,.48-.27,1.15,1.15,0,0,1,.41.13c.07,0,.07,0,.07.07a2.41,2.41,0,0,0,1.85.69,12.86,12.86,0,0,0,1.57-.14A30.75,30.75,0,0,0,40.2,9.69c1.1-.34,2.13-.75,3.23-1.09l.82-.21h.2a1.25,1.25,0,0,1,1.31,1.23V10a4.56,4.56,0,0,1-.28.89c-.41,1-.89,1.92-1.37,2.81-1.3,2.67-2.6,5.34-3.7,8.09a1.65,1.65,0,0,0-.27.89v.13a3.36,3.36,0,0,0,1-.61,38.5,38.5,0,0,0,3.15-3.43,86.91,86.91,0,0,1,8.57-8.91,24.5,24.5,0,0,1,2.53-2.06,6.84,6.84,0,0,1,2.13-1.09,2.49,2.49,0,0,1,.68-.07,1.63,1.63,0,0,1,1.65,1.44,7.29,7.29,0,0,1,.13,1.71c0,.76,0,1.51.07,2.33a4.42,4.42,0,0,0,2.81,3.43,9.59,9.59,0,0,0,2.88.61h1a29.08,29.08,0,0,0,5.41-.47,10,10,0,0,0,2.4-.83c.07-.07.21-.07.35-.13a.28.28,0,0,1,.27.13V15c0,.07,0,.07-.07.14a2.29,2.29,0,0,1-.62.48,9.59,9.59,0,0,1-2.26.68,28.2,28.2,0,0,1-5.82.69c-.55,0-1-.07-1.51-.07a7.07,7.07,0,0,1-4.18-1.51,5.32,5.32,0,0,1-2-3,15,15,0,0,1-.27-2.4V8.53c0-.55-.14-.76-.48-.76a.83.83,0,0,0-.41.07,6.08,6.08,0,0,0-1.86,1A48,48,0,0,0,50,13.53c-2.47,2.4-4.67,5.07-6.93,7.68a20.39,20.39,0,0,1-1.5,1.71A3.78,3.78,0,0,1,40.14,24a1.4,1.4,0,0,1-1.79-1V22a18.85,18.85,0,0,1,1.58-4.66c1.1-2.26,2.26-4.52,3.5-6.72.13-.27.34-.48.34-.75A.61.61,0,0,0,43.43,9.76Z"/><circle class="cls-2" cx="26.54" cy="38.31" r="0.91"/><circle class="cls-2" cx="11.64" cy="16.48" r="5.35"/><circle class="cls-2" cx="30.79" cy="2.5" r="0.91"/></g></g></svg>