<svg xmlns="http://www.w3.org/2000/svg" xmlns:xlink="http://www.w3.org/1999/xlink" viewBox="0 0 331.52 213.88"><defs><style>.cls-1{mask:url(#mask);filter:url(#luminosity-noclip-2);}.cls-18,.cls-2,.cls-23,.cls-63{mix-blend-mode:multiply;}.cls-2{fill:url(#linear-gradient);}.cls-3{isolation:isolate;}.cls-4,.cls-42{opacity:0.7;}.cls-5{opacity:0.02;}.cls-6{opacity:0.05;}.cls-7{opacity:0.07;}.cls-8{opacity:0.1;}.cls-9{opacity:0.12;}.cls-10{opacity:0.15;}.cls-11{opacity:0.17;}.cls-12{opacity:0.2;}.cls-13{opacity:0.22;}.cls-14{opacity:0.25;}.cls-15{opacity:0.27;}.cls-16,.cls-62{opacity:0.3;}.cls-17{fill:url(#linear-gradient-2);}.cls-18,.cls-25,.cls-42{fill:#e5d4ef;}.cls-19,.cls-20,.cls-53{fill:#ebdef3;}.cls-20{mix-blend-mode:screen;}.cls-21{fill:url(#linear-gradient-3);}.cls-22{fill:#231f20;}.cls-22,.cls-70{mix-blend-mode:color-dodge;}.cls-23{fill:#d1b4e3;}.cls-24,.cls-55{opacity:0.5;}.cls-26,.cls-43,.cls-45,.cls-53,.cls-56{opacity:0.8;}.cls-27,.cls-60{opacity:0.6;}.cls-28{fill:url(#linear-gradient-4);}.cls-29{fill:url(#linear-gradient-5);}.cls-30{fill:url(#linear-gradient-6);}.cls-31{fill:url(#linear-gradient-7);}.cls-32{fill:url(#linear-gradient-8);}.cls-33{fill:url(#linear-gradient-9);}.cls-34{fill:url(#linear-gradient-10);}.cls-35{fill:url(#linear-gradient-11);}.cls-36{fill:url(#linear-gradient-12);}.cls-37{fill:url(#linear-gradient-13);}.cls-38{fill:url(#linear-gradient-14);}.cls-39{fill:url(#linear-gradient-15);}.cls-40{fill:url(#linear-gradient-16);}.cls-41{fill:url(#linear-gradient-17);}.cls-43{fill:url(#linear-gradient-18);}.cls-44{fill:url(#linear-gradient-19);}.cls-45{fill:url(#linear-gradient-20);}.cls-46{fill:url(#linear-gradient-21);}.cls-47{fill:url(#linear-gradient-22);}.cls-48{fill:url(#linear-gradient-23);}.cls-49{fill:url(#linear-gradient-24);}.cls-50{fill:url(#linear-gradient-25);}.cls-51{fill:url(#linear-gradient-26);}.cls-52{fill:url(#linear-gradient-27);}.cls-54,.cls-55,.cls-56,.cls-57,.cls-58,.cls-59,.cls-60,.cls-61,.cls-62{fill:#45108a;}.cls-57{opacity:0.2;}.cls-58{opacity:0.85;}.cls-59{opacity:0.75;}.cls-61{opacity:0.4;}.cls-64{fill:url(#linear-gradient-28);}.cls-65{mask:url(#mask-2);}.cls-66{fill:url(#linear-gradient-29);}.cls-67{fill:url(#linear-gradient-30);}.cls-68{fill:#ede2f3;}.cls-69{fill:url(#linear-gradient-31);}.cls-70{fill:#414042;}.cls-71{opacity:0.79;}.cls-72{fill:#fff;}.cls-73{filter:url(#luminosity-noclip);}</style><filter id="luminosity-noclip" x="152.2" y="-8279.89" width="128.7" height="32766" filterUnits="userSpaceOnUse" color-interpolation-filters="sRGB"><feFlood flood-color="#fff" result="bg"/><feBlend in="SourceGraphic" in2="bg"/></filter><mask id="mask" x="152.2" y="-8279.89" width="128.7" height="32766" maskUnits="userSpaceOnUse"><g class="cls-73"/></mask><linearGradient id="linear-gradient" x1="207.76" y1="84.63" x2="243.76" y2="20.13" gradientUnits="userSpaceOnUse"><stop offset="0"/><stop offset="1" stop-color="#fff"/></linearGradient><linearGradient id="linear-gradient-2" x1="177.25" y1="153.04" x2="164.21" y2="221.13" gradientUnits="userSpaceOnUse"><stop offset="0.04" stop-color="#6b24d6"/><stop offset="0.32" stop-color="#7a1cd0"/><stop offset="0.86" stop-color="#a306c1"/><stop offset="0.98" stop-color="#ad00bd"/></linearGradient><linearGradient id="linear-gradient-3" x1="13.77" y1="-25.71" x2="201.63" y2="329.46" gradientUnits="userSpaceOnUse"><stop offset="0.04" stop-color="#6b24d6"/><stop offset="0.35" stop-color="#7a1cd0"/><stop offset="0.97" stop-color="#a306c1"/><stop offset="0.98" stop-color="#a405c0"/></linearGradient><linearGradient id="linear-gradient-4" x1="107.18" y1="180.27" x2="133.12" y2="180.27" gradientUnits="userSpaceOnUse"><stop offset="0" stop-color="#2d085d"/><stop offset="1" stop-color="#410f82"/></linearGradient><linearGradient id="linear-gradient-5" x1="96.31" y1="170.9" x2="133" y2="170.9" xlink:href="#linear-gradient-4"/><linearGradient id="linear-gradient-6" x1="85.44" y1="166.56" x2="115.42" y2="166.56" xlink:href="#linear-gradient-4"/><linearGradient id="linear-gradient-7" x1="74.57" y1="161.45" x2="100.52" y2="161.45" xlink:href="#linear-gradient-4"/><linearGradient id="linear-gradient-8" x1="63.71" y1="156.72" x2="84.28" y2="156.72" xlink:href="#linear-gradient-4"/><linearGradient id="linear-gradient-9" x1="52.84" y1="148.02" x2="81.83" y2="148.02" xlink:href="#linear-gradient-4"/><linearGradient id="linear-gradient-10" x1="41.97" y1="143.04" x2="66.48" y2="143.04" xlink:href="#linear-gradient-4"/><linearGradient id="linear-gradient-11" x1="107.18" y1="181.77" x2="127.93" y2="181.77" xlink:href="#linear-gradient-4"/><linearGradient id="linear-gradient-12" x1="96.31" y1="173.17" x2="125.12" y2="173.17" xlink:href="#linear-gradient-4"/><linearGradient id="linear-gradient-13" x1="85.44" y1="167.67" x2="111.57" y2="167.67" xlink:href="#linear-gradient-4"/><linearGradient id="linear-gradient-14" x1="74.57" y1="162.95" x2="95.33" y2="162.95" xlink:href="#linear-gradient-4"/><linearGradient id="linear-gradient-15" x1="63.71" y1="158.22" x2="79.09" y2="158.22" xlink:href="#linear-gradient-4"/><linearGradient id="linear-gradient-16" x1="52.84" y1="149.52" x2="76.64" y2="149.52" xlink:href="#linear-gradient-4"/><linearGradient id="linear-gradient-17" x1="41.97" y1="145.31" x2="58.61" y2="145.31" xlink:href="#linear-gradient-4"/><linearGradient id="linear-gradient-18" x1="719.4" y1="1386.21" x2="716.73" y2="1443.4" gradientTransform="matrix(0.87, 0.5, -1, 0.58, 831.16, -1046.51)" xlink:href="#linear-gradient-4"/><linearGradient id="linear-gradient-19" x1="73.42" y1="88.57" x2="82.09" y2="116.57" xlink:href="#linear-gradient-2"/><linearGradient id="linear-gradient-20" x1="18.67" y1="137.01" x2="37.5" y2="137.01" xlink:href="#linear-gradient-4"/><linearGradient id="linear-gradient-21" x1="57.27" y1="-82.21" x2="245.13" y2="272.96" gradientUnits="userSpaceOnUse"><stop offset="0.04" stop-color="#9f19ab"/><stop offset="0.24" stop-color="#ae25b1"/><stop offset="0.65" stop-color="#d744bf"/><stop offset="1" stop-color="#ff63ce"/></linearGradient><linearGradient id="linear-gradient-22" x1="4897.51" y1="19.01" x2="4973.68" y2="91.46" gradientTransform="matrix(-1, 0, 0, 1, 5086.31, 0)" xlink:href="#linear-gradient-2"/><linearGradient id="linear-gradient-23" x1="4953.95" y1="24.7" x2="4965.47" y2="81.55" gradientTransform="matrix(-1, 0, 0, 1, 5086.31, 0)" xlink:href="#linear-gradient-2"/><linearGradient id="linear-gradient-24" x1="4971.58" y1="46.41" x2="4995.73" y2="116.63" gradientTransform="matrix(-1, 0, 0, 1, 5086.31, 0)" xlink:href="#linear-gradient-2"/><linearGradient id="linear-gradient-25" x1="71.6" y1="75.97" x2="79.77" y2="109.47" xlink:href="#linear-gradient-2"/><linearGradient id="linear-gradient-26" x1="103.94" y1="79.72" x2="113.44" y2="108.06" xlink:href="#linear-gradient-2"/><linearGradient id="linear-gradient-27" x1="81.79" y1="66.85" x2="99.72" y2="111.95" xlink:href="#linear-gradient-2"/><linearGradient id="linear-gradient-28" x1="139.77" y1="-105.21" x2="327.63" y2="249.96" xlink:href="#linear-gradient-4"/><filter id="luminosity-noclip-2" x="152.2" y="40.62" width="128.7" height="66.58" filterUnits="userSpaceOnUse" color-interpolation-filters="sRGB"><feFlood flood-color="#fff" result="bg"/><feBlend in="SourceGraphic" in2="bg"/></filter><mask id="mask-2" x="152.2" y="40.62" width="128.7" height="66.58" maskUnits="userSpaceOnUse"><g class="cls-1"><path class="cls-2" d="M171.94,40.8c2.22,1.28,21.89-1.95,27.69,1.4s-4.72,15.12,2.44,19.25S251.6,52.8,258,56.51s-5.68,18.38.61,22,17.6,1,21.18,3-2.93,5.82-.83,7L246.73,107.2,152.2,52.62Z"/></g></mask><linearGradient id="linear-gradient-29" x1="207.76" y1="84.63" x2="243.76" y2="20.13" gradientUnits="userSpaceOnUse"><stop offset="0" stop-color="#5513ab"/><stop offset="1" stop-color="#be3bff"/></linearGradient><linearGradient id="linear-gradient-30" x1="171.57" y1="64.55" x2="281.65" y2="64.55" xlink:href="#linear-gradient-21"/><linearGradient id="linear-gradient-31" x1="218.32" y1="-30.91" x2="311.96" y2="107.14" xlink:href="#linear-gradient-21"/></defs><g class="cls-3"><g id="Layer_2" data-name="Layer 2"><g id="Layer_1-2" data-name="Layer 1"><g class="cls-4"><path class="cls-5" d="M186.52,211.78a14.17,14.17,0,0,1-7.05-1.67l-16.72-9.65L146,190.8a6.55,6.55,0,0,1-3.61-5.6c0-2.52,1.66-4.93,4.55-6.6a18,18,0,0,1,8.78-2.22,14.19,14.19,0,0,1,7.05,1.67l16.72,9.66,16.72,9.65a6.55,6.55,0,0,1,3.6,5.6c0,2.53-1.66,4.93-4.55,6.6A18,18,0,0,1,186.52,211.78Z"/><path class="cls-6" d="M147.6,178.8h0a17.41,17.41,0,0,1,8.55-2.15,14.25,14.25,0,0,1,6,1.22c.26.12.56.28.81.42l16.28,9.4,1.37.79,14.91,8.61a8.06,8.06,0,0,1,2.93,2.83,5.67,5.67,0,0,1,.72,2.52c.08,2.44-1.49,4.8-4.34,6.44a17.48,17.48,0,0,1-8.54,2.15,14.48,14.48,0,0,1-6.05-1.22c-.26-.12-.56-.28-.8-.42L163.19,200l-1.36-.79-14.92-8.62a8,8,0,0,1-2.93-2.83,5.63,5.63,0,0,1-.72-2.51C143.18,182.8,144.75,180.44,147.6,178.8Z"/><path class="cls-7" d="M148.23,179h0a17,17,0,0,1,8.31-2.08,14,14,0,0,1,5.88,1.2l.78.41,15.85,9.16,1.33.76,14.51,8.38a8.91,8.91,0,0,1,2.9,2.7,5.68,5.68,0,0,1,.79,2.4c.16,2.34-1.32,4.66-4.12,6.28a17,17,0,0,1-8.32,2.08,14,14,0,0,1-5.88-1.2c-.23-.11-.56-.29-.78-.41l-15.85-9.16-1.33-.76-14.51-8.38a8.91,8.91,0,0,1-2.9-2.7,5.68,5.68,0,0,1-.79-2.4C143.94,182.93,145.42,180.61,148.23,179Z"/><path class="cls-8" d="M148.85,179.19h0a16.59,16.59,0,0,1,8.09-2,13.56,13.56,0,0,1,5.71,1.19c.21.1.56.29.75.4l15.42,8.9,1.29.75,14.11,8.15a9.52,9.52,0,0,1,2.86,2.56,5.65,5.65,0,0,1,.87,2.28c.24,2.25-1.16,4.52-3.91,6.11a16.4,16.4,0,0,1-8.09,2,13.56,13.56,0,0,1-5.71-1.19c-.21-.1-.56-.28-.75-.4L164.07,199l-1.29-.74-14.11-8.15a9.71,9.71,0,0,1-2.87-2.57,5.64,5.64,0,0,1-.86-2.27C144.69,183.05,146.1,180.78,148.85,179.19Z"/><path class="cls-9" d="M149.48,179.39h0a16,16,0,0,1,7.86-2,13.13,13.13,0,0,1,5.54,1.18l.72.39,15,8.65,1.26.72,13.71,7.92a10.94,10.94,0,0,1,2.83,2.43,5.51,5.51,0,0,1,.93,2.15c.34,2.17-1,4.39-3.69,6a16,16,0,0,1-7.86,1.95,13.1,13.1,0,0,1-5.54-1.17l-.73-.39-15-8.65-1.26-.72-13.7-7.92a10.78,10.78,0,0,1-2.83-2.43,5.68,5.68,0,0,1-.94-2.15C145.45,183.18,146.77,181,149.48,179.39Z"/><path class="cls-10" d="M150.1,179.59h0a15.47,15.47,0,0,1,7.63-1.89,12.64,12.64,0,0,1,5.37,1.15l.7.38,14.55,8.4,1.22.71L192.88,196a12.89,12.89,0,0,1,2.8,2.3,5.74,5.74,0,0,1,1,2c.42,2.08-.82,4.26-3.48,5.79a15.56,15.56,0,0,1-7.63,1.9,12.79,12.79,0,0,1-5.37-1.16l-.7-.38L165,198.1l-1.22-.7-13.31-7.69a12.55,12.55,0,0,1-2.79-2.3,5.77,5.77,0,0,1-1-2C146.2,183.31,147.44,181.13,150.1,179.59Z"/><path class="cls-11" d="M150.73,179.78h0a15,15,0,0,1,7.4-1.82,12.21,12.21,0,0,1,5.2,1.14c.13.06.56.3.68.37l14.11,8.14,1.18.69,12.91,7.45a14.88,14.88,0,0,1,2.76,2.17,6,6,0,0,1,1.08,1.91c.5,2-.65,4.12-3.27,5.63a15,15,0,0,1-7.4,1.83,12.21,12.21,0,0,1-5.2-1.14l-.68-.37-14.11-8.15L164.2,197l-12.9-7.45a15.77,15.77,0,0,1-2.76-2.17,5.86,5.86,0,0,1-1.08-1.91C147,183.43,148.11,181.3,150.73,179.78Z"/><path class="cls-12" d="M151.35,180h0a14.55,14.55,0,0,1,7.18-1.76,11.61,11.61,0,0,1,5,1.13l.65.35,13.67,7.9,1.16.66,12.49,7.22a19.51,19.51,0,0,1,2.74,2,6.23,6.23,0,0,1,1.15,1.79c.59,1.89-.48,4-3.06,5.47a14.48,14.48,0,0,1-7.17,1.76,11.61,11.61,0,0,1-5-1.13l-.65-.35-13.68-7.9-1.15-.66-12.5-7.22a19.4,19.4,0,0,1-2.73-2,6.33,6.33,0,0,1-1.15-1.78C147.71,183.56,148.78,181.47,151.35,180Z"/><path class="cls-13" d="M152,180.18h0a14,14,0,0,1,6.94-1.69,11.34,11.34,0,0,1,4.87,1.1l.62.35,13.24,7.64,1.12.65,12.09,7a18,18,0,0,1,2.7,1.9,4,4,0,0,1,1.22,1.67c.69,1.81-.31,3.85-2.83,5.31a13.93,13.93,0,0,1-6.95,1.7,11.33,11.33,0,0,1-4.86-1.11l-.63-.35-13.24-7.64-1.11-.65-12.1-7a17.26,17.26,0,0,1-2.7-1.9,4.13,4.13,0,0,1-1.22-1.67C148.46,183.68,149.45,181.64,152,180.18Z"/><path class="cls-14" d="M152.6,180.38h0a13.4,13.4,0,0,1,6.72-1.63,10.92,10.92,0,0,1,4.7,1.09l.59.33,12.81,7.4,1.08.62,11.69,6.75a25.22,25.22,0,0,1,2.67,1.77,4,4,0,0,1,1.29,1.55c.78,1.72-.14,3.72-2.62,5.15a13.51,13.51,0,0,1-6.72,1.63,11,11,0,0,1-4.7-1.09l-.59-.34-12.81-7.39-1.08-.63-11.69-6.75a24.72,24.72,0,0,1-2.67-1.77,3.93,3.93,0,0,1-1.29-1.54C149.2,183.81,150.12,181.81,152.6,180.38Z"/><path class="cls-15" d="M153.23,180.58h0a12.89,12.89,0,0,1,6.49-1.57,10.5,10.5,0,0,1,4.53,1.08l.56.32,12.37,7.14,1,.61,11.29,6.51c.12.07,2.58,1.54,2.64,1.64a4.07,4.07,0,0,1,1.36,1.43c.87,1.62,0,3.58-2.41,5a13,13,0,0,1-6.49,1.56,10.36,10.36,0,0,1-4.53-1.08l-.57-.32-12.36-7.14-1-.61-11.29-6.51c-.12-.07-2.58-1.53-2.64-1.64a4,4,0,0,1-1.36-1.43C150,183.94,150.79,182,153.23,180.58Z"/><path class="cls-16" d="M180.07,202.48l-13.49-7.79-13.49-7.79c-2.72-1.57-2.38-4.31.76-6.13h0c3.15-1.81,7.9-2,10.62-.44L178,188.12l13.49,7.79c2.73,1.57,2.38,4.32-.76,6.13h0C187.55,203.86,182.79,204.05,180.07,202.48Z"/></g><path class="cls-17" d="M180.8,198.71,147.36,179.4c-3.38-2-3-5.35.94-7.6h0c3.9-2.25,9.79-2.49,13.17-.54l33.44,19.3c3.37,1.95,3,5.35-.95,7.6h0C190.07,200.41,184.17,200.66,180.8,198.71Z"/><path class="cls-18" d="M180.8,198.27,147.36,179c-3.38-2-3-5.35.94-7.6h0c3.9-2.25,9.79-2.49,13.17-.55l33.44,19.31c3.37,1.95,3,5.35-.95,7.6h0C190.07,200,184.17,200.21,180.8,198.27Z"/><polygon class="cls-19" points="180.26 189.27 179.38 186.33 177.98 187.14 168.94 181.92 167.54 182.73 176.58 187.95 175.17 188.76 180.26 189.27"/><polygon class="cls-20" points="177.59 192.97 179.49 194.07 182.94 192.08 181.04 190.98 177.59 192.97"/><polygon class="cls-20" points="180.07 194.4 181.97 195.5 188.01 192.01 186.11 190.91 180.07 194.4"/><polygon class="cls-20" points="191.18 190.85 182.55 195.83 184.45 196.93 193.08 191.95 191.18 190.85"/><path class="cls-18" d="M231.63,152.11l-8.42-4.86-2,1.13,8.42,4.87Zm-3.82,3-10.05-5.8-2,1.14,10,5.8ZM240.15,157l-6.89-4-2,1.13,6.9,4Zm4.32,2.49L241.78,158l-2,1.13,2.69,1.56ZM205,136.71l-6.15-3.56-2,1.14,6.15,3.55Zm-1.29,4.49-9.4-5.43-2,1.14,9.39,5.42Zm25.77,14.88-2,1.13,2.64,1.53,2-1.14ZM217.53,144l-11-6.33-2,1.14,10.95,6.32Zm4.06,2.34-2.44-1.4-2,1.13,2.43,1.41Zm-5.45,2.09-5.28-3-2,1.13,5.27,3Zm-10.86-6.26-2,1.13,4,2.29,2-1.14Zm26.44,17.53,7.21,4.16,2-1.13-7.2-4.16ZM255,165.58l-8.88-5.12-2,1.13,8.88,5.13Zm5.73,3.31-4.11-2.37-2,1.14,4.1,2.37Zm-46-2-6.9-4-2,1.13,6.89,4Zm2.17-1.72,7.2,4.16,2-1.13-7.21-4.16Zm10.82,1,3.15,1.81,2-1.13-3.15-1.82Zm-8.56,5.53,6.9,4,2-1.13-6.9-4Zm6.56-1.45,3.09,1.78,2-1.14-3.08-1.78Zm-40.17-23.2,4,2.29,2-1.14-4-2.28Zm10.61,9.1-2.43-1.4-2,1.13,2.44,1.41Zm2.21-4-5.28-3-2,1.13,5.27,3.05ZM210,159,200,153.16l-2,1.14,10,5.8Zm2,11.63-7.2-4.16-2,1.13,7.2,4.16Zm-19.5-24.71,11,6.33,2-1.14-11-6.33Zm26.68,15.41,6.9,4,2-1.14-6.9-4Zm-7,16.89,2-1.14-2.69-1.55-2,1.14Zm14.17.67-12.69-7.33-2,1.14L224.35,180Zm-6.79-19.64-8.42-4.86-2,1.14,8.42,4.86Zm-25.07,1.24-8.52-4.92-2,1.14,8.52,4.92Zm22.77,2.67-5.58-3.22-2,1.13,5.58,3.23Zm-32.92-8.53-5.27-3-2,1.13,5.28,3Zm-5.14-5.93,11,6.32,2-1.13-11-6.33Zm8,12.83-11-6.33-2,1.14,11,6.33Zm19,.5-8.42-4.86-2,1.13,8.42,4.87Zm3.61,12.56-6.9-4-2,1.13,6.9,4Zm-12.7.18,2.64,1.53,2-1.14-2.64-1.52Zm4.27,2.46,7.2,4.16,2-1.13-7.21-4.16ZM190.9,165.91l8.42,4.86,2-1.14-8.42-4.86ZM178.55,164l5.27,3.05,2-1.13-5.28-3.05Zm24.63,1.48-7.1-4.1-2,1.13,7.1,4.1Zm-16.34-1.93,2.43,1.41,2-1.14-2.44-1.4Zm57.65,10.06-2,1.14,4.11,2.37,2-1.13Zm-9.06,7.52,2.13,1.23,2-1.14L237.4,180Zm-9.3-.13,6.89,4,2-1.14-6.9-4Zm-1.85,4.17,4.11,2.37,2-1.14L226.24,184Zm-10.5-6.07,8.87,5.13,2-1.13L215.74,178ZM185.45,168l10,5.8,2-1.14-10.05-5.8Zm7.4-24.19-6.25-3.61-2,1.13,6.25,3.61ZM232.48,169l8.42,4.86,2-1.13-8.42-4.87Zm-27.39-15.82,2.43,1.41,2-1.14-2.44-1.4Zm38.82,25.39-11.82-6.83-2,1.14L242,179.66Zm-7.79.73-6.48-3.74-2,1.14,6.48,3.74Zm-16.63-9.59-3.15-1.82-2,1.13,3.14,1.82ZM185.88,145l-3.82-2.2-2,1.13,3.81,2.21ZM162,154.43l9.39,5.43,2-1.14-9.4-5.42Zm12.65-.2-6.15-3.55-2,1.13,6.15,3.55Zm2.81-3.62L173,148.06l-2,1.13,4.43,2.56Zm2.11-4-2-1.15-2,1.13,2,1.15ZM173,160.79l3.95,2.29,2-1.14-4-2.28Z"/><path class="cls-5" d="M110.56,212.58,10.64,155a9.72,9.72,0,0,1,0-16.83l79.7-46.33a9.73,9.73,0,0,1,9.75,0L200,149.4a9.72,9.72,0,0,1,0,16.83l-79.7,46.33A9.73,9.73,0,0,1,110.56,212.58Z"/><path class="cls-6" d="M111,211.63,11.72,154.47a9.48,9.48,0,0,1,0-16.41L90,92.56a9.46,9.46,0,0,1,9.5,0l99.27,57.16a9.48,9.48,0,0,1,0,16.41l-78.27,45.5A9.46,9.46,0,0,1,111,211.63Z"/><path class="cls-7" d="M111.43,210.69,12.81,153.9a9.22,9.22,0,0,1,0-16L89.63,93.24a9.26,9.26,0,0,1,9.26,0L197.51,150a9.23,9.23,0,0,1,0,16l-76.85,44.68A9.21,9.21,0,0,1,111.43,210.69Z"/><path class="cls-8" d="M111.87,209.75l-98-56.41a9,9,0,0,1,0-15.55L89.29,93.93a9,9,0,0,1,9,0l98,56.41a9,9,0,0,1,0,15.55l-75.42,43.86A9,9,0,0,1,111.87,209.75Z"/><path class="cls-9" d="M112.3,208.81,15,152.77a8.73,8.73,0,0,1,0-15.12l74-43a8.72,8.72,0,0,1,8.75,0l97.33,56a8.75,8.75,0,0,1,0,15.13l-74,43A8.74,8.74,0,0,1,112.3,208.81Z"/><path class="cls-10" d="M112.73,207.87,16.06,152.21a8.5,8.5,0,0,1,0-14.7L88.6,95.3a8.49,8.49,0,0,1,8.51,0L193.79,151a8.5,8.5,0,0,1,0,14.7l-72.57,42.21A8.49,8.49,0,0,1,112.73,207.87Z"/><path class="cls-11" d="M113.17,206.93l-96-55.29a8.24,8.24,0,0,1,0-14.27L88.26,96a8.21,8.21,0,0,1,8.26,0l96,55.28a8.24,8.24,0,0,1,0,14.27l-71.13,41.39A8.24,8.24,0,0,1,113.17,206.93Z"/><path class="cls-12" d="M113.6,206,18.23,151.08a8,8,0,0,1,0-13.84l69.7-40.57a8,8,0,0,1,8,0l95.37,54.91a8,8,0,0,1,0,13.85L121.62,206A8,8,0,0,1,113.6,206Z"/><path class="cls-13" d="M114,205.05,19.32,150.51a7.75,7.75,0,0,1,0-13.41L87.57,97.36a7.74,7.74,0,0,1,7.77,0l94.72,54.53a7.76,7.76,0,0,1,0,13.42L121.81,205A7.78,7.78,0,0,1,114,205.05Z"/><path class="cls-14" d="M114.47,204.11,20.4,150a7.51,7.51,0,0,1,0-13L87.23,98.05a7.46,7.46,0,0,1,7.52,0l94.07,54.16a7.5,7.5,0,0,1,0,13L122,204.09A7.49,7.49,0,0,1,114.47,204.11Z"/><path class="cls-15" d="M114.9,203.17,21.48,149.38a7.25,7.25,0,0,1,0-12.56L86.88,98.73a7.28,7.28,0,0,1,7.28,0l93.42,53.79a7.26,7.26,0,0,1,0,12.56l-65.42,38.08A7.26,7.26,0,0,1,114.9,203.17Z"/><path class="cls-16" d="M115.34,202.22l-92.77-53.4a7,7,0,0,1,0-12.14l64-37.26a7,7,0,0,1,7,0l92.77,53.41a7,7,0,0,1,0,12.13l-64,37.26A7,7,0,0,1,115.34,202.22Z"/><polygon class="cls-21" points="116.47 201.9 0 134.8 89.04 83.17 205.52 150.27 116.47 201.9"/><polygon class="cls-22" points="116.47 201.06 1.21 134.1 0 134.8 116.47 201.9 203.8 150.98 202.59 150.84 116.47 201.06"/><polygon class="cls-23" points="175.11 159.05 93.78 112.09 94.21 111.84 175.54 158.8 175.11 159.05"/><polygon class="cls-23" points="158.46 168.66 77.13 121.7 77.56 121.45 158.89 168.41 158.46 168.66"/><polygon class="cls-23" points="183.43 154.24 102.1 107.28 102.53 107.04 183.86 153.99 183.43 154.24"/><polygon class="cls-23" points="166.78 163.85 85.45 116.9 85.88 116.65 167.21 163.6 166.78 163.85"/><g class="cls-24"><polygon class="cls-25" points="89.05 128.13 83.51 124.93 103.92 113.15 109.46 116.35 89.05 128.13"/><polygon class="cls-25" points="99.92 134.41 94.38 131.21 125.53 113.22 131.07 116.42 99.92 134.41"/><polygon class="cls-25" points="110.79 140.68 105.25 137.48 129.68 123.37 135.22 126.57 110.79 140.68"/><polygon class="cls-25" points="121.66 146.95 116.12 143.76 136.52 131.97 142.06 135.17 121.66 146.95"/><polygon class="cls-25" points="132.52 153.23 126.98 150.03 142.02 141.35 147.56 144.55 132.52 153.23"/><polygon class="cls-25" points="143.39 159.5 137.85 156.31 158.26 144.52 163.8 147.72 143.39 159.5"/><polygon class="cls-25" points="154.26 165.78 148.72 162.58 177.18 146.15 182.72 149.35 154.26 165.78"/></g><g class="cls-26"><polygon class="cls-25" points="89.05 128.13 83.51 124.93 98.73 116.15 104.27 119.34 89.05 128.13"/><polygon class="cls-25" points="99.92 134.41 94.38 131.21 117.65 117.77 123.19 120.97 99.92 134.41"/><polygon class="cls-25" points="110.79 140.68 105.25 137.48 125.83 125.6 131.37 128.79 110.79 140.68"/><polygon class="cls-25" points="121.66 146.95 116.12 143.76 131.33 134.97 136.87 138.17 121.66 146.95"/><polygon class="cls-25" points="132.52 153.23 126.98 150.03 136.83 144.35 142.37 147.54 132.52 153.23"/><polygon class="cls-25" points="143.39 159.5 137.85 156.31 153.07 147.52 158.61 150.72 143.39 159.5"/><polygon class="cls-25" points="154.26 165.78 148.72 162.58 169.31 150.69 174.85 153.89 154.26 165.78"/></g><polygon class="cls-23" points="53.63 134.88 134.96 181.84 135.39 181.59 54.06 134.63 53.63 134.88"/><polygon class="cls-23" points="36.98 144.49 118.31 191.45 118.74 191.2 37.41 144.24 36.98 144.49"/><polygon class="cls-23" points="61.95 130.07 143.28 177.03 143.72 176.78 62.38 129.82 61.95 130.07"/><polygon class="cls-23" points="45.31 139.69 126.64 186.64 127.07 186.39 45.74 139.44 45.31 139.69"/><g class="cls-27"><polygon class="cls-28" points="107.18 184.56 112.72 187.76 133.13 175.98 127.58 172.78 107.18 184.56"/><polygon class="cls-29" points="96.31 178.29 101.85 181.49 133 163.5 127.46 160.31 96.31 178.29"/><polygon class="cls-30" points="85.44 172.01 90.98 175.21 115.42 161.1 109.88 157.91 85.44 172.01"/><polygon class="cls-31" points="74.57 165.74 80.11 168.94 100.52 157.16 94.98 153.96 74.57 165.74"/><polygon class="cls-32" points="63.71 159.47 69.25 162.66 84.28 153.98 78.74 150.78 63.71 159.47"/><polygon class="cls-33" points="52.84 153.19 58.38 156.39 81.83 142.85 76.29 139.65 52.84 153.19"/><polygon class="cls-34" points="41.97 146.92 47.51 150.11 66.48 139.16 60.94 135.96 41.97 146.92"/></g><g class="cls-26"><polygon class="cls-35" points="107.18 184.56 112.72 187.76 127.93 178.98 122.39 175.78 107.18 184.56"/><polygon class="cls-36" points="96.31 178.29 101.85 181.49 125.12 168.05 119.58 164.85 96.31 178.29"/><polygon class="cls-37" points="85.44 172.01 90.98 175.21 111.57 163.33 106.03 160.13 85.44 172.01"/><polygon class="cls-38" points="74.57 165.74 80.11 168.94 95.33 160.15 89.79 156.96 74.57 165.74"/><polygon class="cls-39" points="63.71 159.47 69.25 162.66 79.09 156.98 73.55 153.78 63.71 159.47"/><polygon class="cls-40" points="52.84 153.19 58.38 156.39 76.64 145.85 71.1 142.65 52.84 153.19"/><polygon class="cls-41" points="41.97 146.92 47.51 150.11 58.61 143.71 53.07 140.51 41.97 146.92"/></g><path class="cls-42" d="M87.73,110.1c-4.79,2.76-12.56,2.75-17.38,0s-4.83-7.27,0-10,12.56-2.75,17.37,0S92.51,107.34,87.73,110.1Z"/><path class="cls-43" d="M47.89,133.93c-4.78,2.76-12.56,2.75-17.37,0s-4.84-7.27-.05-10,12.56-2.75,17.37,0S52.67,131.17,47.89,133.93Z"/><path class="cls-44" d="M80.59,107a1.56,1.56,0,0,1-.54-1c0-.22.3-.39.68-.39a7.1,7.1,0,0,0,1.46-.16,1.38,1.38,0,0,0,.94,0c.25-.14.33-.34.21-.46,1-.63,1.45-1.37,0-2.18a3.7,3.7,0,0,0-3.78,0,1.08,1.08,0,0,0-.79.12.31.31,0,0,0,0,.54,1.49,1.49,0,0,0-.28.85c0,.22-.3.4-.68.39a5.55,5.55,0,0,1-1.78-.31,3,3,0,0,0-2.33.15l-1.08.63c-.22.13-.21.32,0,.45L78.46,109a.87.87,0,0,0,.77,0l1.09-.63C81,108,81,107.42,80.59,107Z"/><path class="cls-42" d="M42.49,125.48a1.61,1.61,0,0,0-1.45,0l-5.48,3.16,5.15,3a1.61,1.61,0,0,0,1.45,0,.44.44,0,0,0,0-.83l-3.69-2.13,4-2.33C42.9,126.09,42.89,125.71,42.49,125.48Z"/><path class="cls-45" d="M37.5,141.31l-10-5.77-2,1.13,10,5.77Zm-11.62-6.7-5.25-3-2,1.13,5.26,3Z"/><polygon class="cls-42" points="57.44 109.22 68.35 115.52 70.31 114.39 59.4 108.09 57.44 109.22"/><polygon class="cls-42" points="69.97 116.45 72.39 117.85 74.35 116.72 71.92 115.32 69.97 116.45"/><path class="cls-5" d="M154.06,156.08,54.14,98.53a9.72,9.72,0,0,1,0-16.83l79.7-46.33a9.73,9.73,0,0,1,9.75,0L243.49,92.9a9.72,9.72,0,0,1,0,16.83l-79.7,46.33A9.73,9.73,0,0,1,154.06,156.08Z"/><path class="cls-6" d="M154.5,155.13,55.22,98a9.48,9.48,0,0,1,0-16.41l78.28-45.5a9.46,9.46,0,0,1,9.5,0l99.27,57.16a9.48,9.48,0,0,1,0,16.41L164,155.12A9.46,9.46,0,0,1,154.5,155.13Z"/><path class="cls-7" d="M154.93,154.19,56.31,97.4a9.22,9.22,0,0,1,0-16l76.84-44.69a9.26,9.26,0,0,1,9.26,0L241,93.52a9.23,9.23,0,0,1,0,16l-76.85,44.68A9.21,9.21,0,0,1,154.93,154.19Z"/><path class="cls-8" d="M155.37,153.25l-98-56.41a9,9,0,0,1,0-15.55l75.42-43.86a9,9,0,0,1,9,0l98,56.41a9,9,0,0,1,0,15.55l-75.42,43.86A9,9,0,0,1,155.37,153.25Z"/><path class="cls-9" d="M155.8,152.31l-97.32-56a8.73,8.73,0,0,1,0-15.12l74-43a8.72,8.72,0,0,1,8.75,0l97.33,56a8.75,8.75,0,0,1,0,15.13l-74,43A8.74,8.74,0,0,1,155.8,152.31Z"/><path class="cls-10" d="M156.23,151.37,59.56,95.71a8.5,8.5,0,0,1,0-14.7L132.1,38.8a8.49,8.49,0,0,1,8.51,0l96.68,55.66a8.5,8.5,0,0,1,0,14.7l-72.57,42.21A8.49,8.49,0,0,1,156.23,151.37Z"/><path class="cls-11" d="M156.67,150.43l-96-55.29a8.24,8.24,0,0,1,0-14.27l71.13-41.38a8.21,8.21,0,0,1,8.26,0l96,55.28a8.24,8.24,0,0,1,0,14.27l-71.13,41.39A8.24,8.24,0,0,1,156.67,150.43Z"/><path class="cls-12" d="M157.1,149.49,61.73,94.58a8,8,0,0,1,0-13.84l69.7-40.57a8,8,0,0,1,8,0L234.8,95.07a8,8,0,0,1,0,13.85l-69.7,40.56A8,8,0,0,1,157.1,149.49Z"/><path class="cls-13" d="M157.53,148.55,62.82,94a7.75,7.75,0,0,1,0-13.41l68.27-39.74a7.74,7.74,0,0,1,7.77,0l94.72,54.53a7.76,7.76,0,0,1,0,13.42l-68.27,39.74A7.78,7.78,0,0,1,157.53,148.55Z"/><path class="cls-14" d="M158,147.61,63.9,93.45a7.51,7.51,0,0,1,0-13l66.85-38.91a7.46,7.46,0,0,1,7.52,0L232.32,95.7a7.5,7.5,0,0,1,0,13l-66.85,38.91A7.49,7.49,0,0,1,158,147.61Z"/><path class="cls-15" d="M158.4,146.67,65,92.88a7.25,7.25,0,0,1,0-12.56l65.41-38.09a7.28,7.28,0,0,1,7.28,0L231.08,96a7.26,7.26,0,0,1,0,12.56l-65.42,38.08A7.26,7.26,0,0,1,158.4,146.67Z"/><path class="cls-16" d="M158.84,145.72,66.07,92.32a7,7,0,0,1,0-12.14l64-37.26a7,7,0,0,1,7,0l92.77,53.41a7,7,0,0,1,0,12.13l-64,37.26A7,7,0,0,1,158.84,145.72Z"/><polygon class="cls-46" points="159.97 145.4 43.5 78.3 132.54 26.67 249.02 93.77 159.97 145.4"/><polygon class="cls-22" points="159.97 144.56 44.71 77.6 43.5 78.3 159.97 145.4 247.3 94.48 246.09 94.34 159.97 144.56"/><path class="cls-47" d="M142,80.26a30.93,30.93,0,0,0,7.11-2.92c6.06-3.5,8.53-8.29,7.41-12.83-1.94-7.16-12.69-12.64-25.65-12.62-1.4,0-2.77.07-4.11.2l-1.87-6.22a59.93,59.93,0,0,1,19,.92,50.2,50.2,0,0,1,8.52,2.55h0l.25.11c.44.18.87.36,1.29.56l1,.46.07,0a26.32,26.32,0,0,1,9.58,7.24c8.54,10.63.5,23.29-18,28.29Z"/><path class="cls-48" d="M102.93,80.51c-5.79-4-8.57-8.43-8.54-13.65l10.39,0s0,.1,0,.14c0,3.69,2.28,7.07,6.1,9.68,4.76,3.26,11.9,5.33,19.87,5.32a41.36,41.36,0,0,0,13.43-2.18l5.36,5.38C133.86,90.42,114.49,88.48,102.93,80.51Z"/><path class="cls-49" d="M104.78,66.84l-10.39,0c0-10.42,12.75-19.15,30.54-21l1.87,6.22C114.45,53.24,104.93,59.42,104.78,66.84Z"/><path class="cls-50" d="M75.77,86.4l6.72-3.88a.59.59,0,0,0,0-1.12L71.74,75.19a2.16,2.16,0,0,0-1.95,0l-6.72,3.88a.59.59,0,0,0,0,1.12l4.44,2.57-1,.54-.65-.37a2.16,2.16,0,0,0-2,0l-.17.09,5.15,3,.17-.09a.61.61,0,0,0,0-1.15l-.64-.37.94-.55,4.44,2.57A2.16,2.16,0,0,0,75.77,86.4ZM64.34,79.78,71,75.92l10.2,5.89-6.68,3.86Z"/><path class="cls-51" d="M121.35,103.42l-5.52-3.19a2.16,2.16,0,0,0-2,0l-10.18,5.88c-.54.31-.53.81,0,1.12l5.51,3.19a2.16,2.16,0,0,0,2,0l10.18-5.88A.59.59,0,0,0,121.35,103.42Zm-10.41,6-5.48-3.16,9.4-5.43,5.48,3.17Z"/><path class="cls-52" d="M102.49,94.24,91.24,87.75a2.11,2.11,0,0,0-1.94,0l-7,4c-.54.3-.53.81,0,1.12l11.24,6.49a2.14,2.14,0,0,0,1.94,0l7-4A.59.59,0,0,0,102.49,94.24Zm-8.44,4.27L83.84,92.62l6.93-4L101,94.51Z"/><polygon class="cls-53" points="79.05 83.47 84.07 80.58 82.05 79.41 77.03 82.31 75.5 81.42 74.7 84.82 80.59 84.36 79.05 83.47"/><polygon class="cls-53" points="99.65 93.13 94.63 96.03 96.65 97.19 101.67 94.29 103.2 95.18 104 91.78 98.11 92.24 99.65 93.13"/><polygon class="cls-53" points="116.77 103.63 111.75 106.53 113.78 107.69 118.79 104.79 120.33 105.68 121.12 102.28 115.24 102.74 116.77 103.63"/><polygon class="cls-54" points="196.13 75.3 199.99 73.08 196.16 70.86 192.31 73.09 196.13 75.3"/><polygon class="cls-54" points="188.9 79.48 192.75 77.25 188.92 75.04 185.07 77.27 188.9 79.48"/><polygon class="cls-54" points="181.66 83.66 185.51 81.43 181.68 79.22 177.83 81.45 181.66 83.66"/><polygon class="cls-55" points="174.42 87.84 178.27 85.61 174.44 83.4 170.59 85.63 174.42 87.84"/><polygon class="cls-55" points="167.18 92.02 171.03 89.79 167.21 87.58 163.35 89.81 167.18 92.02"/><polygon class="cls-55" points="159.94 96.19 163.8 93.97 159.97 91.76 156.11 93.98 159.94 96.19"/><polygon class="cls-54" points="152.71 100.37 156.56 98.15 152.73 95.94 148.88 98.16 152.71 100.37"/><polygon class="cls-55" points="145.47 104.55 149.32 102.33 145.49 100.12 141.64 102.34 145.47 104.55"/><polygon class="cls-54" points="202.98 79.25 206.83 77.03 203 74.81 199.15 77.04 202.98 79.25"/><polygon class="cls-55" points="195.74 83.43 199.59 81.2 195.76 78.99 191.91 81.22 195.74 83.43"/><polygon class="cls-56" points="188.5 87.61 192.35 85.38 188.52 83.17 184.67 85.4 188.5 87.61"/><polygon class="cls-55" points="181.26 91.79 185.12 89.56 181.28 87.35 177.43 89.58 181.26 91.79"/><polygon class="cls-56" points="174.02 95.97 177.88 93.74 174.05 91.53 170.19 93.75 174.02 95.97"/><polygon class="cls-54" points="166.78 100.14 170.64 97.92 166.81 95.71 162.96 97.93 166.78 100.14"/><polygon class="cls-55" points="159.55 104.32 163.4 102.1 159.57 99.89 155.72 102.11 159.55 104.32"/><polygon class="cls-55" points="152.31 108.5 156.16 106.28 152.33 104.07 148.48 106.29 152.31 108.5"/><polygon class="cls-55" points="209.82 83.2 213.67 80.97 209.84 78.76 205.99 80.99 209.82 83.2"/><polygon class="cls-54" points="202.58 87.38 206.43 85.15 202.6 82.94 198.75 85.17 202.58 87.38"/><polygon class="cls-54" points="195.34 91.56 199.19 89.33 195.37 87.12 191.51 89.35 195.34 91.56"/><polygon class="cls-54" points="188.1 95.74 191.96 93.51 188.13 91.3 184.27 93.53 188.1 95.74"/><polygon class="cls-55" points="180.86 99.92 184.72 97.69 180.89 95.48 177.03 97.7 180.86 99.92"/><polygon class="cls-54" points="173.63 104.09 177.48 101.87 173.65 99.66 169.8 101.88 173.63 104.09"/><polygon class="cls-55" points="166.39 108.27 170.24 106.05 166.41 103.84 162.56 106.06 166.39 108.27"/><polygon class="cls-54" points="159.15 112.45 163 110.23 159.17 108.02 155.32 110.24 159.15 112.45"/><polygon class="cls-54" points="216.66 87.15 220.51 84.92 216.68 82.71 212.83 84.94 216.66 87.15"/><polygon class="cls-55" points="209.42 91.33 213.27 89.1 209.44 86.89 205.59 89.12 209.42 91.33"/><polygon class="cls-55" points="202.18 95.51 206.04 93.28 202.21 91.07 198.35 93.3 202.18 95.51"/><polygon class="cls-54" points="194.94 99.69 198.8 97.46 194.97 95.25 191.12 97.48 194.94 99.69"/><polygon class="cls-54" points="187.71 103.87 191.56 101.64 187.73 99.43 183.88 101.66 187.71 103.87"/><polygon class="cls-54" points="180.47 108.05 184.32 105.82 180.49 103.61 176.64 105.83 180.47 108.05"/><polygon class="cls-56" points="173.23 112.22 177.08 110 173.25 107.79 169.4 110.01 173.23 112.22"/><polygon class="cls-56" points="165.99 116.4 169.84 114.18 166.01 111.97 162.16 114.19 165.99 116.4"/><polygon class="cls-55" points="223.5 91.1 227.35 88.87 223.53 86.66 219.67 88.89 223.5 91.1"/><polygon class="cls-54" points="216.26 95.28 220.12 93.05 216.29 90.84 212.43 93.07 216.26 95.28"/><polygon class="cls-56" points="209.02 99.46 212.88 97.23 209.05 95.02 205.19 97.25 209.02 99.46"/><polygon class="cls-56" points="201.78 103.64 205.64 101.41 201.81 99.2 197.96 101.42 201.78 103.64"/><polygon class="cls-55" points="194.55 107.81 198.4 105.59 194.57 103.38 190.72 105.61 194.55 107.81"/><polygon class="cls-55" points="187.31 111.99 191.16 109.77 187.33 107.56 183.48 109.78 187.31 111.99"/><polygon class="cls-55" points="180.07 116.17 183.92 113.95 180.09 111.74 176.24 113.96 180.07 116.17"/><polygon class="cls-55" points="172.83 120.35 176.69 118.13 172.86 115.92 169 118.14 172.83 120.35"/><polygon class="cls-54" points="230.34 95.05 234.19 92.82 230.37 90.61 226.51 92.84 230.34 95.05"/><polygon class="cls-54" points="223.1 99.23 226.96 97 223.13 94.79 219.27 97.02 223.1 99.23"/><polygon class="cls-55" points="215.87 103.41 219.72 101.18 215.89 98.97 212.04 101.2 215.87 103.41"/><polygon class="cls-54" points="208.63 107.59 212.48 105.36 208.65 103.15 204.8 105.38 208.63 107.59"/><polygon class="cls-55" points="201.39 111.77 205.24 109.54 201.41 107.33 197.56 109.55 201.39 111.77"/><polygon class="cls-55" points="194.15 115.94 198 113.72 194.17 111.51 190.32 113.73 194.15 115.94"/><polygon class="cls-54" points="186.91 120.12 190.76 117.9 186.94 115.69 183.08 117.91 186.91 120.12"/><polygon class="cls-57" points="179.67 124.3 183.53 122.08 179.7 119.87 175.84 122.09 179.67 124.3"/><polygon class="cls-23" points="74.07 69.43 176.45 128.55 176.99 128.23 74.61 69.12 74.07 69.43"/><polygon class="cls-54" points="125.46 118.96 138.62 110.96 134.79 108.75 121.63 116.75 125.46 118.96"/><polygon class="cls-58" points="132.12 122.96 142.79 116.42 138.96 114.21 128.29 120.75 132.12 122.96"/><polygon class="cls-59" points="139.12 126.96 147.13 122.09 143.3 119.88 135.29 124.75 139.12 126.96"/><polygon class="cls-60" points="145.96 130.8 151.79 126.92 147.96 124.71 142.13 128.59 145.96 130.8"/><polygon class="cls-61" points="152.62 135.13 156.46 132.75 152.63 130.54 148.79 132.92 152.62 135.13"/><polygon class="cls-62" points="159.29 138.96 161.46 137.59 157.63 135.38 155.46 136.75 159.29 138.96"/><g class="cls-63"><path class="cls-25" d="M319.45,128.93l10.09,5.82a1.65,1.65,0,0,0,1.5,0,.46.46,0,0,0,0-.87L321,128.06a1.65,1.65,0,0,0-1.5,0A.46.46,0,0,0,319.45,128.93Zm9.06,6.41-10.09-5.82a1.65,1.65,0,0,0-1.5,0,.46.46,0,0,0,0,.87L327,136.21a1.65,1.65,0,0,0,1.5,0A.46.46,0,0,0,328.51,135.34ZM326,136.8,315.9,131a1.67,1.67,0,0,0-1.51,0,.46.46,0,0,0,0,.87l10.08,5.82a1.65,1.65,0,0,0,1.5,0A.46.46,0,0,0,326,136.8Z"/></g><path class="cls-18" d="M243.22,141.88l19.92-11.5-6.27-3.62L237,138.26Zm36.65-11.72-6.27-3.62L245.13,143l6.27,3.62Zm-44.83,7,11.37-6.56L240.14,127l-11.37,6.56Zm44.21-3.6-27.7,16-27.89-16.1,25.51-14.72,17.08,9.86,2.21-1.27-19.31-11.14-29.91,17.27,32.32,18.66,29.91-17.27Z"/><path class="cls-5" d="M236.56,133.08,136.64,75.53a9.72,9.72,0,0,1,0-16.83l79.7-46.33a9.73,9.73,0,0,1,9.75,0L326,69.9a9.72,9.72,0,0,1,0,16.83l-79.7,46.33A9.73,9.73,0,0,1,236.56,133.08Z"/><path class="cls-6" d="M237,132.13,137.72,75a9.48,9.48,0,0,1,0-16.41L216,13.06a9.46,9.46,0,0,1,9.5,0l99.27,57.16a9.48,9.48,0,0,1,0,16.41l-78.27,45.5A9.46,9.46,0,0,1,237,132.13Z"/><path class="cls-7" d="M237.43,131.19,138.81,74.4a9.22,9.22,0,0,1,0-16l76.84-44.69a9.26,9.26,0,0,1,9.26,0l98.62,56.79a9.23,9.23,0,0,1,0,16l-76.85,44.68A9.21,9.21,0,0,1,237.43,131.19Z"/><path class="cls-8" d="M237.87,130.25l-98-56.41a9,9,0,0,1,0-15.55l75.42-43.86a9,9,0,0,1,9,0l98,56.41a9,9,0,0,1,0,15.55l-75.42,43.86A9,9,0,0,1,237.87,130.25Z"/><path class="cls-9" d="M238.3,129.31,141,73.27a8.73,8.73,0,0,1,0-15.12l74-43a8.72,8.72,0,0,1,8.75,0l97.33,56a8.75,8.75,0,0,1,0,15.13l-74,43A8.74,8.74,0,0,1,238.3,129.31Z"/><path class="cls-10" d="M238.73,128.37,142.06,72.71A8.5,8.5,0,0,1,142,58L214.6,15.8a8.49,8.49,0,0,1,8.51,0l96.68,55.66a8.5,8.5,0,0,1,0,14.7l-72.57,42.21A8.49,8.49,0,0,1,238.73,128.37Z"/><path class="cls-11" d="M239.17,127.43l-96-55.29a8.24,8.24,0,0,1,0-14.27l71.13-41.38a8.21,8.21,0,0,1,8.26,0l96,55.28a8.24,8.24,0,0,1,0,14.27l-71.13,41.39A8.24,8.24,0,0,1,239.17,127.43Z"/><path class="cls-12" d="M239.6,126.49,144.23,71.58a8,8,0,0,1,0-13.84l69.7-40.57a8,8,0,0,1,8,0L317.3,72.07a8,8,0,0,1,0,13.85l-69.7,40.56A8,8,0,0,1,239.6,126.49Z"/><path class="cls-13" d="M240,125.55,145.32,71a7.75,7.75,0,0,1,0-13.41l68.27-39.74a7.74,7.74,0,0,1,7.77,0l94.72,54.53a7.76,7.76,0,0,1,0,13.42l-68.27,39.74A7.78,7.78,0,0,1,240,125.55Z"/><path class="cls-14" d="M240.47,124.61,146.4,70.45a7.51,7.51,0,0,1,0-13l66.85-38.91a7.46,7.46,0,0,1,7.52,0L314.82,72.7a7.5,7.5,0,0,1,0,13L248,124.59A7.49,7.49,0,0,1,240.47,124.61Z"/><path class="cls-15" d="M240.9,123.67,147.48,69.88a7.25,7.25,0,0,1,0-12.56l65.41-38.09a7.28,7.28,0,0,1,7.28,0L313.58,73a7.26,7.26,0,0,1,0,12.56l-65.42,38.08A7.26,7.26,0,0,1,240.9,123.67Z"/><path class="cls-16" d="M241.34,122.72l-92.77-53.4a7,7,0,0,1,0-12.14l64-37.26a7,7,0,0,1,7,0l92.77,53.41a7,7,0,0,1,0,12.13l-64,37.26A7,7,0,0,1,241.34,122.72Z"/><polygon class="cls-64" points="242.47 122.4 126 55.3 215.04 3.67 331.52 70.77 242.47 122.4"/><path class="cls-23" d="M212.12,17.09l-.2-.12L150.05,52.69l96.48,55.71.2.12,61.88-35.73Zm2.27,25.6,24.25,14-19.8,11.43-24.25-14Zm-20.6,11L171.88,41l19.81-11.43,21.9,12.65Zm45.65,2.57-24.25-14L234.63,31l24.25,14Zm20.24-10.76,24.25,14L264.49,70.69l-24.25-14ZM218,68.58,198.77,79.71l.17.29L174.36,65.8l19.43-11.22Zm.8.47,24.25,14L223.83,94.17l.16.29L199.41,80.27Zm.8-.47,19.8-11.43,24.25,14-19.8,11.43Zm44.85,3,22.28,12.87L267,95.91,244.69,83.05Zm.81-.46,19.43-11.22L307,72.79,287.57,84ZM233.83,30.54,214.39,41.76l-21.9-12.64L211.92,17.9ZM171.08,41.47,193,54.12,173.72,65.24l.17.29L151.65,52.69Zm53.38,53.26,19.43-11.22,22.28,12.86-19.44,11.22Z"/><g class="cls-65"><path class="cls-66" d="M171.94,40.8c2.22,1.28,21.89-1.95,27.69,1.4s-4.72,15.12,2.44,19.25S251.6,52.8,258,56.51s-5.68,18.38.61,22,17.6,1,21.18,3-2.93,5.82-.83,7L246.73,107.2,152.2,52.62Z"/></g><path class="cls-67" d="M278.61,89.23a1.51,1.51,0,0,1-.77-1c-.19-.87.42-1.74,1.13-2.75.58-.83,1.31-1.86,1.16-2.52,0-.1-.09-.41-.7-.76-1.37-.79-4.35-.8-7.51-.81-4.64,0-9.9,0-13.67-2.21s-2.11-7-.62-11.79c1.4-4.46,2.72-8.67,0-10.23-2.88-1.67-14.73.47-26.18,2.54-13.29,2.4-25.85,4.66-29.76,2.4-4.28-2.47-3-7.24-2-11.46,1.06-4.06,1.55-6.62-.48-7.79-3.4-2-12.32-1.51-18.83-1.19-5.14.26-7.87.36-8.86-.21l.75-1.3c.66.38,4.58.18,8,0,7.08-.35,15.88-.79,19.66,1.39,3.16,1.83,2.16,5.71,1.19,9.47-1,4-2,7.88,1.25,9.78s16.88-.44,28.75-2.58c12.79-2.31,23.83-4.3,27.19-2.36,3.75,2.16,2.19,7.15.68,12-1.38,4.39-2.68,8.53-.07,10,3.42,2,8.47,2,12.92,2,3.52,0,6.55,0,8.26,1a2.68,2.68,0,0,1,1.42,1.74c.29,1.3-.61,2.58-1.41,3.71-.34.49-.92,1.31-.88,1.56Z"/><path class="cls-68" d="M261.58,56c0,.71-1,1.29-2.23,1.29s-2.24-.59-2.24-1.3,1-1.29,2.23-1.28S261.58,55.32,261.58,56Z"/><path class="cls-5" d="M261.27,58.62l-7.42-12.7L221,26.86a6.7,6.7,0,0,1,0-11.6l15.17-8.93a6.7,6.7,0,0,1,6.72,0l24.42,14.14L291.69,34.6a6.7,6.7,0,0,1,0,11.6L268,58.61A6.7,6.7,0,0,1,261.27,58.62Z"/><path class="cls-6" d="M221.71,15.17l5.74-3.4c.14-.08,5.63-3.21,5.77-3.13l3.35-1.7a6.89,6.89,0,0,1,6.52.23L262.5,18.41,266.94,21l23.87,13.81.39.25a6.54,6.54,0,0,1-.35,11.08l-6.2,3.28c-.14.08-6.09,3.11-6.22,3l-10.66,4.82a6.82,6.82,0,0,1-6.5-.22L253.7,45l-1.44-.83-30.54-17.7A6.52,6.52,0,0,1,221.71,15.17Z"/><path class="cls-7" d="M222.45,15.07l5.61-3.32c.27-.16,5.4-3,5.68-2.83L237,7.54c1.7-1,4.62-.51,6.33.47l19,11,4.33,2.51L289.92,35l.39.24A6.37,6.37,0,0,1,290,46l-6,3.22c-.27.16-5.81,2.88-6.09,2.72l-10.34,3.91c-1.7,1-4.58.54-6.28-.45l-7.72-11.35-1.4-.81-29.68-17.2A6.36,6.36,0,0,1,222.45,15.07Z"/><path class="cls-8" d="M223.2,15l5.47-3.25c.41-.23,5.17-2.74,5.58-2.51l3.19-1.06c1.51-.88,4.61-.16,6.12.71l18.51,10.71L266.3,22,289,35.19l.37.23A6.19,6.19,0,0,1,289.13,46l-5.82,3.17c-.41.23-5.54,2.66-5.95,2.42l-10,3c-1.51.87-4.54.2-6.05-.67L253.4,43.18,252,42.39l-28.82-16.7A6.19,6.19,0,0,1,223.2,15Z"/><path class="cls-9" d="M224,14.88l5.32-3.18c.55-.32,4.95-2.51,5.5-2.2l3.11-.74c1.32-.77,4.6.18,5.92,1l18.05,10.45L266,22.55l22.19,12.84.36.22a6,6,0,0,1-.24,10.26L282.64,49c-.55.31-5.27,2.43-5.81,2.12l-9.73,2.06c-1.32.77-4.51-.13-5.83-.89l-8-10-1.32-.76L224,25.3A6,6,0,0,1,224,14.88Z"/><path class="cls-10" d="M224.7,14.78l5.18-3.1c.68-.4,4.72-2.28,5.4-1.89l3-.43c1.14-.65,4.6.54,5.73,1.19l17.59,10.19,4,2.33,21.63,12.52.35.21a5.86,5.86,0,0,1-.21,10L282,48.84c-.68.39-5,2.21-5.67,1.82l-9.42,1.14c-1.13.66-4.48-.47-5.61-1.12l-8.17-9.32-1.29-.74-27.1-15.71A5.86,5.86,0,0,1,224.7,14.78Z"/><path class="cls-11" d="M225.44,14.69l5.05-3c.82-.47,4.49-2,5.31-1.57l2.95-.11c.94-.55,4.58.89,5.53,1.43l17.13,9.92,3.92,2.27,21.07,12.2.34.2a5.7,5.7,0,0,1-.17,9.72l-5.27,3c-.82.47-4.72,2-5.54,1.51l-9.1.23c-1,.55-4.45-.81-5.4-1.35L253,40.45l-1.26-.72L225.46,24.52A5.68,5.68,0,0,1,225.44,14.69Z"/><path class="cls-12" d="M226.19,14.59l4.91-3c1-.56,4.26-1.81,5.21-1.26l2.88.21c.75-.44,4.57,1.23,5.33,1.67l16.68,9.66,3.8,2.2L285.52,36l.32.19a5.53,5.53,0,0,1-.13,9.45l-5.08,2.93c-.95.55-4.44,1.76-5.4,1.21l-8.8-.69c-.75.43-4.41-1.15-5.17-1.58l-8.45-8-1.22-.7L226.21,24.13A5.51,5.51,0,0,1,226.19,14.59Z"/><path class="cls-13" d="M226.94,14.5l4.76-2.9c1.09-.63,4-1.57,5.13-.94l2.79.53c.57-.33,4.57,1.58,5.14,1.9L261,22.49l3.7,2.14,20,11.56a3.21,3.21,0,0,1,.31.19,5.35,5.35,0,0,1-.09,9.17L280,48.41c-1.09.64-4.17,1.55-5.26.92l-8.49-1.62c-.56.33-4.38-1.47-4.95-1.8l-8.6-7.28L251.48,38,227,23.74A5.34,5.34,0,0,1,226.94,14.5Z"/><path class="cls-14" d="M227.69,14.4l4.62-2.82c1.23-.71,3.8-1.34,5-.63l2.72.84c.38-.22,4.56,1.93,4.93,2.15l15.77,9.13,3.6,2.09,19.4,11.23.3.18a5.19,5.19,0,0,1-.06,8.9l-4.71,2.8c-1.23.72-3.9,1.32-5.12.62L266,46.35c-.38.22-4.35-1.81-4.73-2l-8.75-6.6-1.14-.66L227.7,23.35A5.17,5.17,0,0,1,227.69,14.4Z"/><path class="cls-15" d="M228.44,14.31l4.48-2.75a5.48,5.48,0,0,1,4.94-.33l2.64,1.17a48.82,48.82,0,0,1,4.73,2.39l15.31,8.86,3.49,2,18.84,10.91a2.91,2.91,0,0,1,.3.17,5,5,0,0,1,0,8.63l-4.52,2.74a5.55,5.55,0,0,1-5,.31L265.77,45a43.15,43.15,0,0,1-4.51-2.26l-8.9-5.92-1.1-.63L228.45,23A5,5,0,0,1,228.44,14.31Z"/><path class="cls-16" d="M273.1,48l-22-12.71-22-12.71a4.84,4.84,0,0,1,0-8.37l4.34-2.68a4.86,4.86,0,0,1,4.85,0l21.95,12.72L282.27,37a4.83,4.83,0,0,1,0,8.36L278,48A4.83,4.83,0,0,1,273.1,48Z"/><path class="cls-69" d="M262.61,53.86l-3.76-14.49L219,16.33c-4.75-2.75-4.16-7.54,1.33-10.71l5.19-3c5.49-3.17,13.79-3.51,18.55-.77l45.68,26.44C294.55,31,294,35.83,288.46,39Z"/><path class="cls-53" d="M234.29,15.67l8.77-5.07L240.3,9l-8.77,5.07Zm16.14-5.17-2.76-1.59-12.54,7.24,2.76,1.6Zm-19.74,3.09,5-2.89-2.76-1.6-5,2.89ZM250.16,12,238,19.05,225.67,12l11.24-6.48,7.52,4.34,1-.56-8.5-4.91L223.72,12,238,20.17l13.18-7.61Z"/><polygon class="cls-70" points="242.47 121.56 127.21 54.6 126 55.3 242.47 122.4 329.8 71.48 328.59 71.34 242.47 121.56"/><g class="cls-71"><path class="cls-19" d="M251,24.8a.17.17,0,0,1,0,.31.52.52,0,0,1-.5,0,.3.3,0,0,1-.08-.08.2.2,0,0,1,0-.15.3.3,0,0,1,.08-.08A.52.52,0,0,1,251,24.8Z"/><g class="cls-3"><path class="cls-19" d="M262,19.25a.22.22,0,0,1,.08.09.18.18,0,0,1-.08.23.52.52,0,0,1-.5,0c-.14-.08-.13-.22,0-.31a.49.49,0,0,1,.41,0Z"/><path class="cls-19" d="M254.22,17.73a1,1,0,0,1,0,1.83,3,3,0,0,1-2.91,0,1,1,0,0,1,0-1.83A3,3,0,0,1,254.22,17.73Z"/><path class="cls-72" d="M263.11,19.64a.47.47,0,0,1-.24.36l-2.53,1.61-.21-.09,2.56-1.63a.3.3,0,0,0,.17-.24.3.3,0,0,0-.16-.24.74.74,0,0,0-.38-.1.76.76,0,0,0-.21,0,.22.22,0,0,0-.08-.09l-.08,0a1.1,1.1,0,0,1,.37-.06,1,1,0,0,1,.56.14A.42.42,0,0,1,263.11,19.64Z"/><path class="cls-72" d="M255.44,24.5,260,21.61l.22.09-4.58,2.91a8.81,8.81,0,0,1-4.71,1.27,8.43,8.43,0,0,1-4.66-1.16,3.4,3.4,0,0,1-1.91-2.92,3.62,3.62,0,0,1,2-3l7.26-4.61a1.09,1.09,0,0,1,.56-.16,1.13,1.13,0,0,1,.56.14.44.44,0,0,1,.23.35.44.44,0,0,1-.24.35l-7.26,4.62a2.74,2.74,0,0,0-1.49,2.26A2.59,2.59,0,0,0,247.37,24a6.36,6.36,0,0,0,3.09.88.19.19,0,0,0,0,.15,6.49,6.49,0,0,1-3.27-.92,2.69,2.69,0,0,1-1.51-2.33,2.88,2.88,0,0,1,1.57-2.37l7.26-4.61a.31.31,0,0,0,.16-.25.29.29,0,0,0-.16-.24.74.74,0,0,0-.38-.09.81.81,0,0,0-.39.1L246.49,19a3.49,3.49,0,0,0-1.9,2.85,3.28,3.28,0,0,0,1.84,2.81,8.2,8.2,0,0,0,4.48,1.12A8.56,8.56,0,0,0,255.44,24.5Z"/><path class="cls-19" d="M272.44,28.69c-.07-.05-.05-.12.05-.18l.11-.05c.36-.11.72-.22,1.1-.3l.2,0,.19,0,.07.07-.07.14-.09,0a3.21,3.21,0,0,1-.43.07l-.68.12-.1,0-.07.05a.24.24,0,0,1-.26,0Z"/><path class="cls-19" d="M268,24.73c.23.14.26.33.05.53a1.72,1.72,0,0,1-.43.32c-.2.13-.41.26-.62.41a.77.77,0,0,0-.18,1.07,2.65,2.65,0,0,0,.61.59l.27.17a10.89,10.89,0,0,0,1.6.82,4,4,0,0,0,.87.26l.13,0,0,.07,0,0h-.35a3.84,3.84,0,0,1-.81-.26,11.84,11.84,0,0,1-1.75-.85c-.15-.1-.26-.19-.39-.27a1.48,1.48,0,0,1-.71-1,.94.94,0,0,1,.29-.86,4.34,4.34,0,0,1,.58-.46l.39-.25c.15-.1.17-.16.08-.21l-.13-.06a3.1,3.1,0,0,0-.76-.14,26.8,26.8,0,0,0-2.83-.13c-1.32,0-2.64.1-4,.18-.3,0-.58,0-.88.05a2.1,2.1,0,0,1-.68-.06l-.16-.07c-.16-.1-.2-.26-.06-.39l.29-.19a10.55,10.55,0,0,1,1.7-.55c.92-.21,1.86-.41,2.78-.58a1,1,0,0,0,.3-.08l-.07-.07-.11,0c-.64-.29-1.33-.52-2-.76l-.83-.31-.22-.09a7.67,7.67,0,0,1-.91-.44c-.13-.06-.15-.07-.21,0l-.07,0a1.37,1.37,0,0,1-.23.17,4,4,0,0,1-1.51.5,5.56,5.56,0,0,1-1.16,0,2.15,2.15,0,0,1-.94-.26l-.15-.11a.51.51,0,0,1-.1-.66,1.27,1.27,0,0,1,.38-.35,2.34,2.34,0,0,1,.76-.31,4.16,4.16,0,0,1,1.49,0,1.05,1.05,0,0,1,.48.16l.08.05a.27.27,0,0,1,.11.3l-.08.07a.34.34,0,0,1-.31,0,2.79,2.79,0,0,0-1.91.05,1,1,0,0,0-.2.11.53.53,0,0,0-.19.17c-.11.14-.08.25.07.34l.05,0a2.21,2.21,0,0,0,.64.14,4,4,0,0,0,1.73-.23,1.55,1.55,0,0,0,.34-.16.82.82,0,0,0,.26-.22.43.43,0,0,0,.14-.3l0-.12.14,0,.19,0,.09.1c0,.21.11.33.3.45a4.84,4.84,0,0,0,.46.24l.36.17.21.09a18.94,18.94,0,0,0,2,.65c.4.13.78.23,1.17.35l.28.1.05,0a.23.23,0,0,1,0,.43l-.1.06a2,2,0,0,1-.32.11c-.36.1-.76.18-1.13.26-1.09.25-2.17.49-3.21.79a.76.76,0,0,0-.32.11l0,0a2.27,2.27,0,0,0,.43,0,17.31,17.31,0,0,0,1.78-.07c1.59-.1,3.17-.15,4.75-.11.43,0,.84,0,1.25.06a3.73,3.73,0,0,1,.87.17A.73.73,0,0,1,268,24.73Z"/><path class="cls-19" d="M273,30.56h0l-.15,0-.11,0h-.05a19.49,19.49,0,0,1-2.45-.61,1.38,1.38,0,0,1-.41-.18c-.32-.19-.32-.45,0-.66l.06,0,.2-.1h.2l0,0,0,0,.17-.05c.28-.07.58-.12.89-.17h.17l.19,0,.06.09a.11.11,0,0,1,0,.14l-.09,0a1.59,1.59,0,0,1-.33.08l-.8.17a2.74,2.74,0,0,0-.37.11l-.11.06c-.13.09-.13.18.05.29l.08.05a.74.74,0,0,0,.24.11A15.35,15.35,0,0,0,273,30.56Z"/><path class="cls-72" d="M280.26,33.36c.14.08.16.2,0,.32a1.36,1.36,0,0,1-.25.2c-.13.08-.26.16-.38.25a.45.45,0,0,0-.11.65,1.16,1.16,0,0,0,.37.36l.17.11a6.3,6.3,0,0,0,1,.5,3.67,3.67,0,0,0,.53.16l.07,0,0,0-.06,0h-.18a2.7,2.7,0,0,1-.48-.16,6.36,6.36,0,0,1-1.08-.52l-.24-.16a1,1,0,0,1-.44-.59.61.61,0,0,1,.19-.52,3.07,3.07,0,0,1,.34-.29l.25-.15c.09-.06.11-.09.05-.13l-.08,0a1.87,1.87,0,0,0-.46-.09,14.47,14.47,0,0,0-1.73-.07c-.81,0-1.62.06-2.43.1a4.71,4.71,0,0,1-.53,0,1.14,1.14,0,0,1-.42,0l-.09,0c-.1-.06-.13-.17,0-.24l.18-.12a5.51,5.51,0,0,1,1-.34c.55-.13,1.13-.25,1.69-.35l.19-.05,0,0-.07,0c-.4-.17-.81-.32-1.24-.46a6.47,6.47,0,0,1-1.19-.52c-.09,0-.1,0-.13,0l-.05,0-.14.11a2.32,2.32,0,0,1-.92.3,3.28,3.28,0,0,1-.7,0,1.31,1.31,0,0,1-.58-.15l-.09-.07a.3.3,0,0,1-.07-.4,1.19,1.19,0,0,1,.23-.22,1.14,1.14,0,0,1,.36-.15l.11,0,.15,0a2.42,2.42,0,0,1,.76,0,.6.6,0,0,1,.3.1l0,0a.17.17,0,0,1,.07.19l-.05,0h-.2a1.63,1.63,0,0,0-1.15,0l-.13.07-.11.1a.12.12,0,0,0,0,.21l0,0a1.17,1.17,0,0,0,.39.09,2.67,2.67,0,0,0,1.06-.14,1.23,1.23,0,0,0,.2-.1l.16-.14a.2.2,0,0,0,.09-.18l0-.07.08,0h.12l0,.06a.33.33,0,0,0,.19.28l.28.14a8.21,8.21,0,0,0,1.56.56l.71.22.16.06,0,0c.12.08.12.19,0,.26l-.06,0-.19.07c-.23.06-.47.11-.7.15-.66.16-1.32.31-2,.48l-.19.07,0,0,.26,0c.38,0,.74,0,1.1-.05,1-.06,1.93-.09,2.9-.06.26,0,.51,0,.76,0a2.61,2.61,0,0,1,.53.11Z"/></g></g></g></g></g></svg>