<svg xmlns="http://www.w3.org/2000/svg" xmlns:xlink="http://www.w3.org/1999/xlink" viewBox="0 0 404.11 282.23"><defs><style>.cls-1{mask:url(#mask);filter:url(#luminosity-noclip-2);}.cls-2,.cls-25,.cls-41,.cls-45,.cls-85{mix-blend-mode:multiply;}.cls-2{fill:url(#linear-gradient);}.cls-3{isolation:isolate;}.cls-4,.cls-42{mix-blend-mode:screen;}.cls-4,.cls-46,.cls-77{opacity:0.5;}.cls-42,.cls-5,.cls-75{fill:#ebdef3;}.cls-6,.cls-79{opacity:0.2;}.cls-7{opacity:0;}.cls-8{opacity:0.09;}.cls-9{opacity:0.18;}.cls-10{opacity:0.27;}.cls-11{opacity:0.36;}.cls-12{opacity:0.45;}.cls-13{opacity:0.55;}.cls-14{opacity:0.64;}.cls-15{opacity:0.73;}.cls-16{opacity:0.82;}.cls-17{opacity:0.91;}.cls-18{fill:url(#linear-gradient-2);}.cls-19{fill:#cba6e3;}.cls-20{fill:url(#linear-gradient-3);}.cls-21{fill:url(#linear-gradient-4);}.cls-22{fill:url(#linear-gradient-5);}.cls-23{fill:url(#linear-gradient-6);}.cls-24,.cls-44,.cls-92{mix-blend-mode:color-dodge;}.cls-24,.cls-27,.cls-64{opacity:0.7;}.cls-24{fill:url(#radial-gradient);}.cls-25{fill:url(#linear-gradient-7);}.cls-26,.cls-45{fill:#d1b4e3;}.cls-28{opacity:0.02;}.cls-29{opacity:0.05;}.cls-30{opacity:0.07;}.cls-31{opacity:0.1;}.cls-32{opacity:0.12;}.cls-33{opacity:0.15;}.cls-34{opacity:0.17;}.cls-35{opacity:0.2;}.cls-36{opacity:0.22;}.cls-37{opacity:0.25;}.cls-38{opacity:0.27;}.cls-39,.cls-84{opacity:0.3;}.cls-40{fill:url(#linear-gradient-8);}.cls-41,.cls-47,.cls-64{fill:#e5d4ef;}.cls-43{fill:url(#linear-gradient-9);}.cls-44{fill:#231f20;}.cls-48,.cls-65,.cls-67,.cls-75,.cls-78{opacity:0.8;}.cls-49,.cls-82{opacity:0.6;}.cls-50{fill:url(#linear-gradient-10);}.cls-51{fill:url(#linear-gradient-11);}.cls-52{fill:url(#linear-gradient-12);}.cls-53{fill:url(#linear-gradient-13);}.cls-54{fill:url(#linear-gradient-14);}.cls-55{fill:url(#linear-gradient-15);}.cls-56{fill:url(#linear-gradient-16);}.cls-57{fill:url(#linear-gradient-17);}.cls-58{fill:url(#linear-gradient-18);}.cls-59{fill:url(#linear-gradient-19);}.cls-60{fill:url(#linear-gradient-20);}.cls-61{fill:url(#linear-gradient-21);}.cls-62{fill:url(#linear-gradient-22);}.cls-63{fill:url(#linear-gradient-23);}.cls-65{fill:url(#linear-gradient-24);}.cls-66{fill:url(#linear-gradient-25);}.cls-67{fill:url(#linear-gradient-26);}.cls-68{fill:url(#linear-gradient-27);}.cls-69{fill:url(#linear-gradient-28);}.cls-70{fill:url(#linear-gradient-29);}.cls-71{fill:url(#linear-gradient-30);}.cls-72{fill:url(#linear-gradient-31);}.cls-73{fill:url(#linear-gradient-32);}.cls-74{fill:url(#linear-gradient-33);}.cls-76,.cls-77,.cls-78,.cls-79,.cls-80,.cls-81,.cls-82,.cls-83,.cls-84{fill:#45108a;}.cls-80{opacity:0.85;}.cls-81{opacity:0.75;}.cls-83{opacity:0.4;}.cls-86{fill:url(#linear-gradient-34);}.cls-87{mask:url(#mask-2);}.cls-88{fill:url(#linear-gradient-35);}.cls-89{fill:url(#linear-gradient-36);}.cls-90{fill:#ede2f3;}.cls-91{fill:url(#linear-gradient-37);}.cls-92{fill:#414042;}.cls-93{opacity:0.79;}.cls-94{fill:#fff;}.cls-95{filter:url(#luminosity-noclip);}</style><filter id="luminosity-noclip" x="152.2" y="-8282.02" width="128.7" height="32766" filterUnits="userSpaceOnUse" color-interpolation-filters="sRGB"><feFlood flood-color="#fff" result="bg"/><feBlend in="SourceGraphic" in2="bg"/></filter><mask id="mask" x="152.2" y="-8282.02" width="128.7" height="32766" maskUnits="userSpaceOnUse"><g class="cls-95"/></mask><linearGradient id="linear-gradient" x1="207.76" y1="86.77" x2="243.76" y2="22.27" gradientUnits="userSpaceOnUse"><stop offset="0"/><stop offset="1" stop-color="#fff"/></linearGradient><linearGradient id="linear-gradient-2" x1="67.41" y1="167" x2="361.23" y2="167" gradientUnits="userSpaceOnUse"><stop offset="0" stop-color="#5513ab"/><stop offset="1" stop-color="#be3bff"/></linearGradient><linearGradient id="linear-gradient-3" x1="325.13" y1="166.77" x2="321.38" y2="158.52" gradientUnits="userSpaceOnUse"><stop offset="0.04" stop-color="#6b24d6"/><stop offset="0.32" stop-color="#7a1cd0"/><stop offset="0.86" stop-color="#a306c1"/><stop offset="0.98" stop-color="#ad00bd"/></linearGradient><linearGradient id="linear-gradient-4" x1="9083.8" y1="-864.46" x2="9077.4" y2="-852.54" gradientTransform="matrix(-0.87, 0.5, -0.5, 1.44, 7755.76, -3078.13)" gradientUnits="userSpaceOnUse"><stop offset="0.04" stop-color="#b081df"/><stop offset="0.87" stop-color="#bf78d9"/><stop offset="0.98" stop-color="#c277d8"/></linearGradient><linearGradient id="linear-gradient-5" x1="310.57" y1="179.16" x2="305.19" y2="165.91" xlink:href="#linear-gradient-3"/><linearGradient id="linear-gradient-6" x1="9097.87" y1="-856.92" x2="9091.48" y2="-845" xlink:href="#linear-gradient-4"/><radialGradient id="radial-gradient" cx="6992.51" cy="-1764.42" r="50.82" gradientTransform="matrix(-0.92, 0, 0, 0.46, 6798.03, 963.01)" gradientUnits="userSpaceOnUse"><stop offset="0" stop-color="#972a74"/><stop offset="0.04" stop-color="#8a266a"/><stop offset="0.19" stop-color="#601b4a"/><stop offset="0.35" stop-color="#3d112f"/><stop offset="0.51" stop-color="#230a1b"/><stop offset="0.67" stop-color="#0f040c"/><stop offset="0.83" stop-color="#040103"/><stop offset="1"/></radialGradient><linearGradient id="linear-gradient-7" x1="261.3" y1="85.6" x2="121.17" y2="305.32" gradientUnits="userSpaceOnUse"><stop offset="0" stop-color="#fff"/><stop offset="1" stop-color="#e5d4ef"/></linearGradient><linearGradient id="linear-gradient-8" x1="177.25" y1="155.18" x2="164.21" y2="223.26" xlink:href="#linear-gradient-3"/><linearGradient id="linear-gradient-9" x1="13.77" y1="-23.58" x2="201.63" y2="331.59" gradientUnits="userSpaceOnUse"><stop offset="0.04" stop-color="#6b24d6"/><stop offset="0.35" stop-color="#7a1cd0"/><stop offset="0.97" stop-color="#a306c1"/><stop offset="0.98" stop-color="#a405c0"/></linearGradient><linearGradient id="linear-gradient-10" x1="107.18" y1="182.4" x2="133.12" y2="182.4" gradientUnits="userSpaceOnUse"><stop offset="0" stop-color="#2d085d"/><stop offset="1" stop-color="#410f82"/></linearGradient><linearGradient id="linear-gradient-11" x1="96.31" y1="173.03" x2="133" y2="173.03" xlink:href="#linear-gradient-10"/><linearGradient id="linear-gradient-12" x1="85.44" y1="168.69" x2="115.42" y2="168.69" xlink:href="#linear-gradient-10"/><linearGradient id="linear-gradient-13" x1="74.57" y1="163.58" x2="100.52" y2="163.58" xlink:href="#linear-gradient-10"/><linearGradient id="linear-gradient-14" x1="63.71" y1="158.86" x2="84.28" y2="158.86" xlink:href="#linear-gradient-10"/><linearGradient id="linear-gradient-15" x1="52.84" y1="150.15" x2="81.83" y2="150.15" xlink:href="#linear-gradient-10"/><linearGradient id="linear-gradient-16" x1="41.97" y1="145.17" x2="66.48" y2="145.17" xlink:href="#linear-gradient-10"/><linearGradient id="linear-gradient-17" x1="107.18" y1="183.9" x2="127.93" y2="183.9" xlink:href="#linear-gradient-10"/><linearGradient id="linear-gradient-18" x1="96.31" y1="175.3" x2="125.12" y2="175.3" xlink:href="#linear-gradient-10"/><linearGradient id="linear-gradient-19" x1="85.44" y1="169.8" x2="111.57" y2="169.8" xlink:href="#linear-gradient-10"/><linearGradient id="linear-gradient-20" x1="74.57" y1="165.08" x2="95.33" y2="165.08" xlink:href="#linear-gradient-10"/><linearGradient id="linear-gradient-21" x1="63.71" y1="160.35" x2="79.09" y2="160.35" xlink:href="#linear-gradient-10"/><linearGradient id="linear-gradient-22" x1="52.84" y1="151.65" x2="76.64" y2="151.65" xlink:href="#linear-gradient-10"/><linearGradient id="linear-gradient-23" x1="41.97" y1="147.44" x2="58.61" y2="147.44" xlink:href="#linear-gradient-10"/><linearGradient id="linear-gradient-24" x1="719.4" y1="1388.35" x2="716.73" y2="1445.53" gradientTransform="matrix(0.87, 0.5, -1, 0.58, 833.29, -1045.61)" xlink:href="#linear-gradient-10"/><linearGradient id="linear-gradient-25" x1="73.42" y1="90.7" x2="82.09" y2="118.7" xlink:href="#linear-gradient-3"/><linearGradient id="linear-gradient-26" x1="18.67" y1="139.14" x2="37.5" y2="139.14" xlink:href="#linear-gradient-10"/><linearGradient id="linear-gradient-27" x1="57.27" y1="-80.08" x2="245.13" y2="275.09" gradientUnits="userSpaceOnUse"><stop offset="0.04" stop-color="#9f19ab"/><stop offset="0.24" stop-color="#ae25b1"/><stop offset="0.65" stop-color="#d744bf"/><stop offset="1" stop-color="#ff63ce"/></linearGradient><linearGradient id="linear-gradient-28" x1="4897.51" y1="21.14" x2="4973.68" y2="93.6" gradientTransform="matrix(-1, 0, 0, 1, 5086.31, 0)" xlink:href="#linear-gradient-3"/><linearGradient id="linear-gradient-29" x1="4953.95" y1="26.83" x2="4965.47" y2="83.68" gradientTransform="matrix(-1, 0, 0, 1, 5086.31, 0)" xlink:href="#linear-gradient-3"/><linearGradient id="linear-gradient-30" x1="4971.58" y1="48.54" x2="4995.73" y2="118.76" gradientTransform="matrix(-1, 0, 0, 1, 5086.31, 0)" xlink:href="#linear-gradient-3"/><linearGradient id="linear-gradient-31" x1="71.6" y1="78.1" x2="79.77" y2="111.6" xlink:href="#linear-gradient-3"/><linearGradient id="linear-gradient-32" x1="103.94" y1="81.86" x2="113.44" y2="110.19" xlink:href="#linear-gradient-3"/><linearGradient id="linear-gradient-33" x1="81.79" y1="68.98" x2="99.72" y2="114.09" xlink:href="#linear-gradient-3"/><linearGradient id="linear-gradient-34" x1="139.77" y1="-103.08" x2="327.63" y2="252.09" xlink:href="#linear-gradient-10"/><filter id="luminosity-noclip-2" x="152.2" y="42.75" width="128.7" height="66.58" filterUnits="userSpaceOnUse" color-interpolation-filters="sRGB"><feFlood flood-color="#fff" result="bg"/><feBlend in="SourceGraphic" in2="bg"/></filter><mask id="mask-2" x="152.2" y="42.75" width="128.7" height="66.58" maskUnits="userSpaceOnUse"><g class="cls-1"><path class="cls-2" d="M171.94,42.93c2.22,1.28,21.89-2,27.69,1.4s-4.72,15.12,2.44,19.25S251.6,54.94,258,58.64s-5.68,18.39.61,22,17.6,1,21.18,3-2.93,5.82-.83,7l-32.25,18.62L152.2,54.76Z"/></g></mask><linearGradient id="linear-gradient-35" x1="207.76" y1="86.77" x2="243.76" y2="22.27" xlink:href="#linear-gradient-2"/><linearGradient id="linear-gradient-36" x1="171.57" y1="66.68" x2="281.65" y2="66.68" xlink:href="#linear-gradient-27"/><linearGradient id="linear-gradient-37" x1="218.32" y1="-28.77" x2="311.96" y2="109.27" xlink:href="#linear-gradient-27"/></defs><g class="cls-3"><g id="Layer_2" data-name="Layer 2"><g id="Layer_1-2" data-name="Layer 1"><g class="cls-4"><path class="cls-5" d="M170.15,166.32l-79.1-45.67c-5.21-3-5.24-7.89-.06-10.88L277.26,2.23c5.17-3,13.62-3,18.83,0L375.2,47.94c5.21,3,5.24,7.88.06,10.87L189,166.35C183.81,169.34,175.36,169.33,170.15,166.32ZM295.34,2.7c-4.79-2.77-12.57-2.78-17.33,0L91.74,110.21c-4.76,2.75-4.73,7.24.06,10l79.11,45.68c4.79,2.76,12.56,2.78,17.33,0L374.5,58.38c4.76-2.75,4.74-7.24-.05-10Z"/><polygon class="cls-5" points="338.22 42.05 306.29 23.62 308.35 22.43 340.28 40.86 338.22 42.05"/><path class="cls-5" d="M316.78,50,321,52.47l2.1-1.21-4.23-2.44Zm11.35,9.73-2.6-1.51-2.1,1.22L326,61Zm2.36-4.24-5.64-3.26-2.1,1.21,5.64,3.26Zm13,7.7-11.24-6.7-2.1,1.21,11.24,6.7Zm-17.14,1.09-9.11-5.26-2.1,1.21,9.11,5.26Zm-10.85-6.26-5.64-3.26L307.73,56l5.64,3.25ZM310,51.7l11.71,6.77,2.1-1.22-11.71-6.76Zm8.56,13.72-11.71-6.76-2.1,1.21,11.71,6.76Zm20.33.54-9-5.2L327.76,62l9,5.2ZM332.73,68l-4.68-2.7L326,66.53l4.68,2.69ZM317.15,47.82l-4.08-2.36L311,46.67,315.05,49Zm-12.06,9.84-6.57-3.8-2.1,1.21,6.57,3.8Zm3-3.87-4.73-2.73-2.1,1.21L306,55Zm2.24-4.3-2.12-1.23-2.1,1.21,2.12,1.23Z"/><path class="cls-5" d="M307.63,40.39,277.38,57.85,247.2,40.42,277.44,23l30.19,17.43Zm2.25,0L277.44,21.66l-32.5,18.76,32.45,18.73,32.49-18.76Z"/></g><g class="cls-6"><path class="cls-7" d="M165.81,282.23A26.39,26.39,0,0,0,179,279.06l183.27-105.5c4.8-2.77,7.55-7.15,7.55-12,0-5.34-3.31-10.31-9.09-13.65l-79.05-45.64a32.39,32.39,0,0,0-16-4.06,26.4,26.4,0,0,0-13.16,3.17L69.24,206.85c-4.8,2.77-7.55,7.16-7.55,12,0,5.33,3.31,10.31,9.09,13.64l79.05,45.65A32.4,32.4,0,0,0,165.81,282.23Z"/><path class="cls-8" d="M252.66,101.68,69.38,207.17c-4.6,2.66-7.21,6.84-7.19,11.47,0,5.06,3.19,9.79,8.74,13l75.49,43.59c.12.07,3.81,2.18,4,2.23a31.53,31.53,0,0,0,16.07,3.6,28.19,28.19,0,0,0,13-3.47L361.68,172.67c4.61-2.66,7.22-6.84,7.2-11.47,0-5.06-3.19-9.79-8.74-13l-78.58-45.37a32.56,32.56,0,0,0-5.82-2.59,33.76,33.76,0,0,0-10-1.63A25.72,25.72,0,0,0,252.66,101.68Z"/><path class="cls-9" d="M252.81,102,69.53,207.49C65.11,210,62.64,214,62.69,218.4c0,4.78,3.07,9.28,8.38,12.34l75.86,43.8c.24.14,3.71,2.1,4,2.18a30.68,30.68,0,0,0,16.18,3.15c4.1,0,9.84-2.06,12.78-3.76L361.13,171.78c4.42-2.55,6.89-6.53,6.85-10.92-.05-4.78-3.08-9.27-8.39-12.33l-78.11-45.1a36.83,36.83,0,0,0-5.76-2.63A33.72,33.72,0,0,0,265.83,99,25.35,25.35,0,0,0,252.81,102Z"/><path class="cls-10" d="M253,102.31,69.68,207.8c-4.23,2.44-6.56,6.22-6.49,10.36.06,4.5,3,8.76,8,11.69l76.21,44c.36.21,3.61,2,4,2.15a29.72,29.72,0,0,0,16.28,2.69c3.65,0,10-2.54,12.6-4.05L360.58,170.89c4.23-2.44,6.56-6.22,6.5-10.36-.07-4.5-3-8.76-8-11.69L281.41,104a42.49,42.49,0,0,0-5.7-2.67,33.47,33.47,0,0,0-9.8-1.88A24.65,24.65,0,0,0,253,102.31Z"/><path class="cls-11" d="M253.1,102.62,69.83,208.12c-4,2.33-6.24,5.9-6.15,9.81.09,4.22,2.84,8.23,7.69,11l76.56,44.2c.49.28,3.51,1.95,4.08,2.12a28.78,28.78,0,0,0,16.38,2.23c3.19,0,10.13-3,12.41-4.35L360,170c4.05-2.34,6.24-5.91,6.15-9.81-.09-4.22-2.84-8.24-7.69-11l-77.16-44.55a51.5,51.5,0,0,0-5.64-2.72,33.76,33.76,0,0,0-9.7-2A24.3,24.3,0,0,0,253.1,102.62Z"/><path class="cls-12" d="M253.25,102.94,70,208.43c-3.85,2.23-5.9,5.6-5.79,9.26.12,3.94,2.72,7.72,7.33,10.38l76.92,44.41a44.1,44.1,0,0,0,4.12,2.08A27.83,27.83,0,0,0,169,276.33c2.73,0,10.26-3.51,12.22-4.64L359.48,169.11c3.86-2.23,5.91-5.6,5.79-9.26-.11-3.94-2.72-7.72-7.33-10.38l-76.69-44.28c-1-.56-4.44-2.34-5.57-2.75a33.11,33.11,0,0,0-9.61-2.12A23.66,23.66,0,0,0,253.25,102.94Z"/><path class="cls-13" d="M253.39,103.26,70.12,208.75c-3.66,2.11-5.57,5.28-5.44,8.7.14,3.66,2.6,7.2,7,9.73l77.28,44.61a36.36,36.36,0,0,0,4.15,2,27,27,0,0,0,16.59,1.31c2.28,0,10.41-4,12-4.93l177.21-102c3.67-2.12,5.58-5.29,5.44-8.71-.13-3.66-2.6-7.2-7-9.72l-76.22-44c-.82-.47-4.57-2.44-5.51-2.79a33.14,33.14,0,0,0-9.51-2.25A23.19,23.19,0,0,0,253.39,103.26Z"/><path class="cls-14" d="M253.54,103.57,70.27,209.06c-3.48,2-5.25,5-5.09,8.16.16,3.38,2.48,6.67,6.63,9.06l77.63,44.82a32.52,32.52,0,0,0,4.2,2c5.37,2.1,11.83,2.45,16.69.85,1.82,0,10.55-4.47,11.85-5.23l176.2-101.42c3.48-2,5.25-5,5.09-8.15-.16-3.38-2.48-6.67-6.63-9.07L281.1,106.37c-.66-.38-4.71-2.55-5.45-2.83a32.91,32.91,0,0,0-9.42-2.37C261.5,100.83,256.9,101.63,253.54,103.57Z"/><path class="cls-15" d="M253.69,103.89,70.41,209.38c-3.28,1.9-4.91,4.66-4.73,7.6.18,3.1,2.37,6.16,6.27,8.41l78,45a28.34,28.34,0,0,0,4.24,2c5.49,2,12.06,2.21,16.79.39,1.37,0,10.7-5,11.68-5.52L357.83,166.43c3.29-1.9,4.92-4.66,4.74-7.6-.18-3.1-2.37-6.15-6.28-8.41L281,107c-.49-.28-4.83-2.66-5.39-2.88a32.52,32.52,0,0,0-9.32-2.48C261.62,101.21,257,102,253.69,103.89Z"/><path class="cls-16" d="M253.83,104.2,70.56,209.7c-3.1,1.79-4.58,4.34-4.38,7s2.25,5.64,5.92,7.76l78.34,45.23a25.68,25.68,0,0,0,4.29,1.95c5.6,1.95,12.28,2,16.89-.07.91,0,10.83-5.44,11.49-5.81L357.28,165.54c3.1-1.79,4.59-4.35,4.39-7s-2.25-5.63-5.93-7.75l-74.8-43.19c-.33-.19-4.95-2.77-5.32-2.92a32.83,32.83,0,0,0-9.23-2.61C261.74,101.59,257.12,102.3,253.83,104.2Z"/><path class="cls-17" d="M254,104.52,70.71,210c-2.91,1.68-4.26,4-4,6.49s2.14,5.12,5.58,7.11L151,269.05a23.39,23.39,0,0,0,4.32,1.91c5.72,1.87,12.52,1.75,17-.53.46,0,11-5.92,11.31-6.11l173.16-99.67c2.91-1.68,4.26-4,4-6.49s-2.13-5.12-5.58-7.11l-74.33-42.91c-.16-.1-5.07-2.88-5.26-3a32.13,32.13,0,0,0-9.13-2.73C261.86,102,257.24,102.64,254,104.52Z"/><path d="M172.91,269.25,356.18,163.76c5.5-3.18,4.82-8.73-1.54-12.39l-79.05-45.64c-6.35-3.67-16-4.07-21.46-.89L70.85,210.33c-5.5,3.17-4.81,8.72,1.55,12.39l79,45.64C157.8,272,167.41,272.43,172.91,269.25Z"/></g><path class="cls-18" d="M146.94,248.57,73,205.9c-8.34-4.82-7.3-13.23,2.33-18.78L249.16,86.78c9.63-5.56,24.19-6.16,32.53-1.35L355.6,128.1c8.33,4.81,7.29,13.22-2.34,18.78L179.47,247.22C169.84,252.78,155.28,253.38,146.94,248.57Z"/><path class="cls-19" d="M146.94,242.32,73,199.65c-8.34-4.82-7.3-13.23,2.33-18.78L249.16,80.53c9.63-5.56,24.19-6.16,32.53-1.35l73.91,42.67c8.33,4.81,7.29,13.22-2.34,18.78L179.47,241C169.84,246.53,155.28,247.13,146.94,242.32Z"/><path class="cls-5" d="M79,181.21,250.15,82.37c8.31-4.79,20.87-5.31,28.06-1.16L350.54,123c7.19,4.15,6.28,11.4-2,16.2L177.33,238c-8.31,4.79-20.87,5.31-28.06,1.16L76.94,197.41C69.75,193.26,70.66,186,79,181.21Z"/><path class="cls-20" d="M318.66,167.39l8.79-5.08a4.74,4.74,0,0,0,2-3.79h0c0-1.46-.89-2.14-2-1.5l-8.79,5.07a4.78,4.78,0,0,0-2,3.8h0C316.68,167.35,317.57,168,318.66,167.39Z"/><path class="cls-21" d="M317.88,167.11a1.16,1.16,0,0,0,.53-.17l8.79-5.07a4.28,4.28,0,0,0,1.72-3.35c0-.56-.18-1.22-.68-1.22a1.12,1.12,0,0,0-.53.17l-8.79,5.07a4.27,4.27,0,0,0-1.72,3.35C317.2,166.45,317.37,167.11,317.88,167.11Z"/><path class="cls-22" d="M303,176.45l8.79-5.08a4.74,4.74,0,0,0,2-3.79h0c0-1.46-.89-2.14-2-1.5L303,171.15a4.78,4.78,0,0,0-2,3.8h0C301,176.41,301.88,177.08,303,176.45Z"/><path class="cls-23" d="M302.18,176.17a1.09,1.09,0,0,0,.53-.17l8.79-5.07a4.28,4.28,0,0,0,1.73-3.35c0-.56-.18-1.22-.68-1.22a1.12,1.12,0,0,0-.53.17l-8.79,5.07A4.25,4.25,0,0,0,301.5,175C301.5,175.51,301.68,176.17,302.18,176.17Z"/><ellipse class="cls-24" cx="357.8" cy="143.76" rx="46.8" ry="23.61" transform="translate(-19.08 62.2) rotate(-9.68)"/><path class="cls-25" d="M161.78,239.48h0a21.79,21.79,0,0,1-10.72-2.57L80.78,196.33c-3-1.71-4.59-4-4.6-6.47s1.61-4.73,4.53-6.41L255.76,82.39a21.5,21.5,0,0,1,10.6-2.54,21.75,21.75,0,0,1,10.71,2.57L347.36,123c3,1.71,4.59,4,4.59,6.48s-1.61,4.72-4.53,6.4L172.37,237A21.57,21.57,0,0,1,161.78,239.48ZM266.36,80.85a20.52,20.52,0,0,0-10.1,2.4l-175,101.06c-2.59,1.5-4,3.47-4,5.55s1.46,4.08,4.1,5.6L151.56,236a20.71,20.71,0,0,0,10.22,2.44h0a20.51,20.51,0,0,0,10.09-2.4L346.92,135c2.6-1.5,4-3.47,4-5.54s-1.45-4.09-4.09-5.61L276.57,83.29A20.67,20.67,0,0,0,266.36,80.85Z"/><path class="cls-26" d="M315.58,111.75l-17.44-10.07c-.68-.39-.6-1.08.19-1.54h0A3,3,0,0,1,301,100l17.43,10.06c.69.4.6,1.09-.19,1.55h0A2.94,2.94,0,0,1,315.58,111.75Z"/><g class="cls-27"><path class="cls-28" d="M186.52,213.91a14.06,14.06,0,0,1-7.05-1.67l-16.72-9.65L146,192.93a6.55,6.55,0,0,1-3.61-5.6c0-2.52,1.66-4.93,4.55-6.6a18,18,0,0,1,8.78-2.22,14.09,14.09,0,0,1,7.05,1.68l16.72,9.65,16.72,9.65a6.56,6.56,0,0,1,3.6,5.61c0,2.52-1.66,4.93-4.55,6.6A18,18,0,0,1,186.52,213.91Z"/><path class="cls-29" d="M147.6,180.93h0a17.41,17.41,0,0,1,8.55-2.15,14.25,14.25,0,0,1,6,1.22c.26.12.56.28.81.42l16.28,9.4,1.37.79,14.91,8.61a8,8,0,0,1,2.93,2.84,5.63,5.63,0,0,1,.72,2.51c.08,2.44-1.49,4.8-4.34,6.44a17.37,17.37,0,0,1-8.54,2.15,14.32,14.32,0,0,1-6.05-1.22c-.26-.12-.56-.28-.8-.42l-16.29-9.4-1.36-.79-14.92-8.61a8.09,8.09,0,0,1-2.93-2.84,5.63,5.63,0,0,1-.72-2.51C143.18,184.93,144.75,182.57,147.6,180.93Z"/><path class="cls-30" d="M148.23,181.13h0a17,17,0,0,1,8.31-2.09,14,14,0,0,1,5.88,1.21c.23.11.56.28.78.41l15.85,9.15,1.33.77L194.89,199a8.7,8.7,0,0,1,2.9,2.7,5.68,5.68,0,0,1,.79,2.39c.16,2.35-1.32,4.66-4.12,6.28a17.14,17.14,0,0,1-8.32,2.09,14,14,0,0,1-5.88-1.21c-.23-.11-.56-.29-.78-.41l-15.85-9.15-1.33-.77-14.51-8.38a8.91,8.91,0,0,1-2.9-2.7,5.68,5.68,0,0,1-.79-2.39C143.94,185.06,145.42,182.74,148.23,181.13Z"/><path class="cls-31" d="M148.85,181.32h0a16.59,16.59,0,0,1,8.09-2,13.56,13.56,0,0,1,5.71,1.19c.21.1.56.29.75.4l15.42,8.9,1.29.75,14.11,8.15a9.65,9.65,0,0,1,2.86,2.56,5.65,5.65,0,0,1,.87,2.28c.24,2.25-1.16,4.52-3.91,6.11a16.52,16.52,0,0,1-8.09,2,13.56,13.56,0,0,1-5.71-1.19c-.21-.1-.56-.29-.75-.4l-15.42-8.9-1.29-.75-14.11-8.15a9.71,9.71,0,0,1-2.87-2.57,5.59,5.59,0,0,1-.86-2.27C144.69,185.19,146.1,182.91,148.85,181.32Z"/><path class="cls-32" d="M149.48,181.52h0a15.93,15.93,0,0,1,7.86-2,13.13,13.13,0,0,1,5.54,1.17l.72.39,15,8.65,1.26.72,13.71,7.92a10.94,10.94,0,0,1,2.83,2.43,5.55,5.55,0,0,1,.93,2.16c.34,2.16-1,4.39-3.69,6a16.07,16.07,0,0,1-7.86,2,13,13,0,0,1-5.54-1.18c-.18-.08-.56-.29-.73-.39l-15-8.64-1.26-.73-13.7-7.92a10.78,10.78,0,0,1-2.83-2.43,5.68,5.68,0,0,1-.94-2.15C145.45,185.31,146.77,183.09,149.48,181.52Z"/><path class="cls-33" d="M150.1,181.72h0a15.47,15.47,0,0,1,7.63-1.89A12.49,12.49,0,0,1,163.1,181c.16.07.56.29.7.37l14.55,8.4,1.22.71,13.31,7.68a12.89,12.89,0,0,1,2.8,2.3,5.82,5.82,0,0,1,1,2c.42,2.08-.82,4.26-3.48,5.8a15.55,15.55,0,0,1-7.63,1.89A12.64,12.64,0,0,1,180.2,209c-.16-.08-.56-.29-.7-.38L165,200.23l-1.22-.7-13.31-7.68a13.12,13.12,0,0,1-2.79-2.3,5.81,5.81,0,0,1-1-2C146.2,185.44,147.44,183.26,150.1,181.72Z"/><path class="cls-34" d="M150.73,181.92h0a14.93,14.93,0,0,1,7.4-1.83,12.21,12.21,0,0,1,5.2,1.14l.68.37,14.11,8.15,1.18.68,12.91,7.45a14.88,14.88,0,0,1,2.76,2.17,6,6,0,0,1,1.08,1.91c.5,2-.65,4.12-3.27,5.63a14.9,14.9,0,0,1-7.4,1.83,12.21,12.21,0,0,1-5.2-1.14l-.68-.37-14.11-8.15-1.19-.68-12.9-7.45a14.88,14.88,0,0,1-2.76-2.17,5.86,5.86,0,0,1-1.08-1.91C147,185.56,148.11,183.43,150.73,181.92Z"/><path class="cls-35" d="M151.35,182.11h0a14.54,14.54,0,0,1,7.18-1.75,11.76,11.76,0,0,1,5,1.12l.65.36,13.67,7.89,1.16.67,12.49,7.21a19.51,19.51,0,0,1,2.74,2,6.37,6.37,0,0,1,1.15,1.79c.59,1.9-.48,4-3.06,5.47a14.38,14.38,0,0,1-7.17,1.76,11.61,11.61,0,0,1-5-1.13l-.65-.35-13.68-7.9-1.15-.66-12.5-7.22a19.36,19.36,0,0,1-2.73-2,6.52,6.52,0,0,1-1.15-1.79C147.71,185.69,148.78,183.6,151.35,182.11Z"/><path class="cls-36" d="M152,182.31h0a14,14,0,0,1,6.94-1.69,11.2,11.2,0,0,1,4.87,1.11c.08,0,.55.3.62.34l13.24,7.65,1.12.64,12.09,7a18,18,0,0,1,2.7,1.91,3.9,3.9,0,0,1,1.22,1.67c.69,1.8-.31,3.85-2.83,5.31a14,14,0,0,1-6.95,1.69,11.19,11.19,0,0,1-4.86-1.11l-.63-.34-13.24-7.65-1.11-.64-12.1-7a17.26,17.26,0,0,1-2.7-1.9,4.13,4.13,0,0,1-1.22-1.67C148.46,185.82,149.45,183.77,152,182.31Z"/><path class="cls-37" d="M152.6,182.51h0a13.51,13.51,0,0,1,6.72-1.63A10.92,10.92,0,0,1,164,182l.59.34,12.81,7.39,1.08.63,11.69,6.75a23.77,23.77,0,0,1,2.67,1.77,3.93,3.93,0,0,1,1.29,1.54c.78,1.72-.14,3.72-2.62,5.15a13.4,13.4,0,0,1-6.72,1.63,11,11,0,0,1-4.7-1.09l-.59-.34-12.81-7.39-1.08-.62L153.94,191a26.29,26.29,0,0,1-2.67-1.77,4,4,0,0,1-1.29-1.55C149.2,185.94,150.12,183.94,152.6,182.51Z"/><path class="cls-38" d="M153.23,182.71h0a13,13,0,0,1,6.49-1.57,10.5,10.5,0,0,1,4.53,1.08l.56.32,12.37,7.14,1,.61,11.29,6.52c.12.07,2.58,1.53,2.64,1.63a4.07,4.07,0,0,1,1.36,1.43c.87,1.62,0,3.58-2.41,5a13,13,0,0,1-6.49,1.56,10.5,10.5,0,0,1-4.53-1.07l-.57-.33-12.36-7.14-1-.6-11.29-6.52c-.12-.07-2.58-1.53-2.64-1.64a4,4,0,0,1-1.36-1.42C150,186.07,150.79,184.11,153.23,182.71Z"/><path class="cls-39" d="M180.07,204.61l-13.49-7.78L153.09,189c-2.72-1.57-2.38-4.32.76-6.13h0c3.15-1.82,7.9-2,10.62-.44L178,190.25,191.45,198c2.73,1.57,2.38,4.32-.76,6.13h0C187.55,206,182.79,206.19,180.07,204.61Z"/></g><path class="cls-40" d="M180.8,200.84l-33.44-19.31c-3.38-1.94-3-5.35.94-7.6h0c3.9-2.25,9.79-2.49,13.17-.54l33.44,19.31c3.37,1.94,3,5.35-.95,7.6h0C190.07,202.54,184.17,202.79,180.8,200.84Z"/><path class="cls-41" d="M180.8,200.4l-33.44-19.31c-3.38-2-3-5.35.94-7.6h0c3.9-2.25,9.79-2.49,13.17-.54l33.44,19.3c3.37,1.95,3,5.35-.95,7.6h0C190.07,202.1,184.17,202.35,180.8,200.4Z"/><polygon class="cls-5" points="180.26 191.4 179.38 188.46 177.98 189.27 168.94 184.05 167.54 184.86 176.58 190.08 175.17 190.89 180.26 191.4"/><polygon class="cls-42" points="177.59 195.1 179.49 196.2 182.94 194.21 181.04 193.11 177.59 195.1"/><polygon class="cls-42" points="180.07 196.53 181.97 197.63 188.01 194.14 186.11 193.05 180.07 196.53"/><polygon class="cls-42" points="191.18 192.98 182.55 197.96 184.45 199.06 193.08 194.08 191.18 192.98"/><path class="cls-41" d="M231.63,154.24l-8.42-4.86-2,1.14,8.42,4.86Zm-3.82,3-10.05-5.8-2,1.14,10,5.8Zm12.34,1.89-6.89-4-2,1.14,6.9,4Zm4.32,2.49-2.69-1.55-2,1.14,2.69,1.55ZM205,138.84l-6.15-3.55-2,1.13L203,140Zm-1.29,4.49-9.4-5.42-2,1.13,9.39,5.43Zm25.77,14.88-2,1.14,2.64,1.52,2-1.14Zm-11.9-12.11-11-6.33-2,1.14,10.95,6.33Zm4.06,2.34-2.44-1.4-2,1.13,2.43,1.41Zm-5.45,2.1-5.28-3-2,1.14,5.27,3Zm-10.86-6.27-2,1.13,4,2.29,2-1.14Zm26.44,17.54,7.21,4.15,2-1.13-7.2-4.16ZM255,167.72l-8.88-5.13-2,1.14,8.88,5.12ZM260.7,171l-4.11-2.38-2,1.14,4.1,2.37Zm-46-2-6.9-4-2,1.14,6.89,4Zm2.17-1.71,7.2,4.15,2-1.13-7.21-4.16Zm10.82,1,3.15,1.81,2-1.13-3.15-1.82Zm-8.56,5.53,6.9,4,2-1.13-6.9-4Zm6.56-1.45,3.09,1.78,2-1.13-3.08-1.78Zm-40.17-23.19,4,2.28,2-1.14-4-2.28Zm10.61,9.09-2.43-1.4-2,1.13,2.44,1.41Zm2.21-4-5.28-3.05-2,1.14,5.27,3ZM210,161.09,200,155.3l-2,1.13,10,5.8Zm2,11.63-7.2-4.16-2,1.13,7.2,4.16ZM192.51,148l11,6.33,2-1.14-11-6.32Zm26.68,15.41,6.9,4,2-1.13-6.9-4Zm-7,16.89,2-1.14-2.69-1.55-2,1.14Zm14.17.67-12.69-7.32-2,1.13,12.68,7.32Zm-6.79-19.63-8.42-4.87-2,1.14,8.42,4.86Zm-25.07,1.23-8.52-4.92-2,1.14,8.52,4.92Zm22.77,2.67L211.65,162l-2,1.14,5.58,3.22Zm-32.92-8.52-5.27-3-2,1.14,5.28,3Zm-5.14-5.94,11,6.33,2-1.14-11-6.32Zm8,12.83-11-6.32-2,1.13,11,6.33Zm19,.5-8.42-4.86-2,1.14,8.42,4.86Zm3.61,12.57-6.9-4-2,1.14,6.9,4Zm-12.7.18,2.64,1.52,2-1.14-2.64-1.52Zm4.27,2.46,7.2,4.16,2-1.14-7.21-4.16ZM190.9,168l8.42,4.86,2-1.14-8.42-4.86Zm-12.35-1.89,5.27,3,2-1.13L180.51,165Zm24.63,1.47-7.1-4.1-2,1.14,7.1,4.1Zm-16.34-1.93,2.43,1.41,2-1.13-2.44-1.41Zm57.65,10.07-2,1.13,4.11,2.37,2-1.13Zm-9.06,7.51,2.13,1.23,2-1.13-2.13-1.23Zm-9.3-.13,6.89,4,2-1.13-6.9-4Zm-1.85,4.17,4.11,2.37,2-1.13-4.11-2.38Zm-10.5-6.06,8.87,5.12,2-1.13-8.88-5.13Zm-28.33-11.12,10,5.8,2-1.14L187.41,169Zm7.4-24.19-6.25-3.61-2,1.14,6.25,3.6Zm39.63,25.15L240.9,176l2-1.13L234.45,170Zm-27.39-15.81,2.43,1.4,2-1.13-2.44-1.41Zm38.82,25.38-11.82-6.83-2,1.14L242,181.79Zm-7.79.74-6.48-3.74-2,1.13,6.48,3.74Zm-16.63-9.6L216.34,170l-2,1.14,3.14,1.81Zm-33.61-24.65-3.82-2.2-2,1.13,3.81,2.21ZM162,156.56l9.39,5.43,2-1.14-9.4-5.42Zm12.65-.2-6.15-3.55-2,1.13,6.15,3.55Zm2.81-3.62L173,150.19l-2,1.13,4.43,2.56Zm2.11-4-2-1.15-2,1.13,2,1.15ZM173,162.93l3.95,2.28,2-1.14-4-2.28Z"/><path class="cls-28" d="M110.56,214.71,10.64,157.17a9.72,9.72,0,0,1,0-16.83L90.32,94a9.76,9.76,0,0,1,9.75,0L200,151.53a9.72,9.72,0,0,1,0,16.83l-79.7,46.34A9.76,9.76,0,0,1,110.56,214.71Z"/><path class="cls-29" d="M111,213.77,11.72,156.6a9.47,9.47,0,0,1,0-16.4L90,94.69a9.49,9.49,0,0,1,9.5,0l99.27,57.16a9.48,9.48,0,0,1,0,16.41l-78.27,45.5A9.49,9.49,0,0,1,111,213.77Z"/><path class="cls-30" d="M111.43,212.83,12.81,156a9.23,9.23,0,0,1,0-16L89.63,95.38a9.26,9.26,0,0,1,9.26,0l98.62,56.79a9.23,9.23,0,0,1,0,16l-76.85,44.68A9.24,9.24,0,0,1,111.43,212.83Z"/><path class="cls-31" d="M111.87,211.88l-98-56.41a9,9,0,0,1,0-15.55L89.29,96.06a9,9,0,0,1,9,0l98,56.42a9,9,0,0,1,0,15.54l-75.42,43.86A9,9,0,0,1,111.87,211.88Z"/><path class="cls-32" d="M112.3,210.94,15,154.9a8.73,8.73,0,0,1,0-15.12l74-43a8.72,8.72,0,0,1,8.75,0l97.33,56a8.74,8.74,0,0,1,0,15.12l-74,43A8.74,8.74,0,0,1,112.3,210.94Z"/><path class="cls-33" d="M112.73,210,16.06,154.34a8.5,8.5,0,0,1,0-14.7L88.6,97.43a8.51,8.51,0,0,1,8.51,0l96.68,55.67a8.49,8.49,0,0,1,0,14.69L121.24,210A8.49,8.49,0,0,1,112.73,210Z"/><path class="cls-34" d="M113.17,209.06l-96-55.29a8.24,8.24,0,0,1,0-14.26L88.26,98.12a8.24,8.24,0,0,1,8.26,0l96,55.29a8.24,8.24,0,0,1,0,14.26l-71.13,41.39A8.24,8.24,0,0,1,113.17,209.06Z"/><path class="cls-35" d="M113.6,208.12,18.23,153.21a8,8,0,0,1,0-13.84l69.7-40.56a8,8,0,0,1,8,0l95.37,54.91a8,8,0,0,1,0,13.84l-69.7,40.56A8,8,0,0,1,113.6,208.12Z"/><path class="cls-36" d="M114,207.18,19.32,152.64a7.75,7.75,0,0,1,0-13.41L87.57,99.49a7.76,7.76,0,0,1,7.77,0L190.06,154a7.75,7.75,0,0,1,0,13.41l-68.27,39.74A7.78,7.78,0,0,1,114,207.18Z"/><path class="cls-37" d="M114.47,206.24,20.4,152.08a7.51,7.51,0,0,1,0-13l66.85-38.91a7.49,7.49,0,0,1,7.52,0l94.07,54.16a7.5,7.5,0,0,1,0,13L122,206.23A7.51,7.51,0,0,1,114.47,206.24Z"/><path class="cls-38" d="M114.9,205.3,21.48,151.51a7.25,7.25,0,0,1,0-12.56l65.41-38.09a7.28,7.28,0,0,1,7.28,0l93.42,53.79a7.26,7.26,0,0,1,0,12.56l-65.42,38.09A7.28,7.28,0,0,1,114.9,205.3Z"/><path class="cls-39" d="M115.34,204.36,22.57,151a7,7,0,0,1,0-12.14l64-37.26a7,7,0,0,1,7,0L186.34,155a7,7,0,0,1,0,12.13l-64,37.27A7,7,0,0,1,115.34,204.36Z"/><polygon class="cls-43" points="116.47 204.03 0 136.93 89.04 85.3 205.52 152.4 116.47 204.03"/><polygon class="cls-44" points="116.47 203.19 1.21 136.23 0 136.93 116.47 204.03 203.8 153.12 202.59 152.98 116.47 203.19"/><polygon class="cls-45" points="175.11 161.18 93.78 114.22 94.21 113.97 175.54 160.93 175.11 161.18"/><polygon class="cls-45" points="158.46 170.79 77.13 123.83 77.56 123.59 158.89 170.54 158.46 170.79"/><polygon class="cls-45" points="183.43 156.37 102.1 109.42 102.53 109.17 183.86 156.13 183.43 156.37"/><polygon class="cls-45" points="166.78 165.99 85.45 119.03 85.88 118.78 167.21 165.74 166.78 165.99"/><g class="cls-46"><polygon class="cls-47" points="89.05 130.26 83.51 127.06 103.92 115.28 109.46 118.48 89.05 130.26"/><polygon class="cls-47" points="99.92 136.54 94.38 133.34 125.53 115.36 131.07 118.55 99.92 136.54"/><polygon class="cls-47" points="110.79 142.81 105.25 139.61 129.68 125.51 135.22 128.71 110.79 142.81"/><polygon class="cls-47" points="121.66 149.09 116.12 145.89 136.52 134.11 142.06 137.31 121.66 149.09"/><polygon class="cls-47" points="132.52 155.36 126.98 152.16 142.02 143.48 147.56 146.68 132.52 155.36"/><polygon class="cls-47" points="143.39 161.64 137.85 158.44 158.26 146.66 163.8 149.85 143.39 161.64"/><polygon class="cls-47" points="154.26 167.91 148.72 164.71 177.18 148.28 182.72 151.48 154.26 167.91"/></g><g class="cls-48"><polygon class="cls-47" points="89.05 130.26 83.51 127.06 98.73 118.28 104.27 121.48 89.05 130.26"/><polygon class="cls-47" points="99.92 136.54 94.38 133.34 117.65 119.9 123.19 123.1 99.92 136.54"/><polygon class="cls-47" points="110.79 142.81 105.25 139.61 125.83 127.73 131.37 130.93 110.79 142.81"/><polygon class="cls-47" points="121.66 149.09 116.12 145.89 131.33 137.1 136.87 140.3 121.66 149.09"/><polygon class="cls-47" points="132.52 155.36 126.98 152.16 136.83 146.48 142.37 149.68 132.52 155.36"/><polygon class="cls-47" points="143.39 161.64 137.85 158.44 153.07 149.65 158.61 152.85 143.39 161.64"/><polygon class="cls-47" points="154.26 167.91 148.72 164.71 169.31 152.83 174.85 156.03 154.26 167.91"/></g><polygon class="cls-45" points="53.63 137.01 134.96 183.97 135.39 183.72 54.06 136.76 53.63 137.01"/><polygon class="cls-45" points="36.98 146.62 118.31 193.58 118.74 193.33 37.41 146.38 36.98 146.62"/><polygon class="cls-45" points="61.95 132.21 143.28 179.16 143.72 178.91 62.38 131.96 61.95 132.21"/><polygon class="cls-45" points="45.31 141.82 126.64 188.77 127.07 188.53 45.74 141.57 45.31 141.82"/><g class="cls-49"><polygon class="cls-50" points="107.18 186.7 112.72 189.89 133.13 178.11 127.58 174.91 107.18 186.7"/><polygon class="cls-51" points="96.31 180.42 101.85 183.62 133 165.64 127.46 162.44 96.31 180.42"/><polygon class="cls-52" points="85.44 174.15 90.98 177.34 115.42 163.24 109.88 160.04 85.44 174.15"/><polygon class="cls-53" points="74.57 167.87 80.11 171.07 100.52 159.29 94.98 156.09 74.57 167.87"/><polygon class="cls-54" points="63.71 161.6 69.25 164.8 84.28 156.11 78.74 152.92 63.71 161.6"/><polygon class="cls-55" points="52.84 155.32 58.38 158.52 81.83 144.98 76.29 141.78 52.84 155.32"/><polygon class="cls-56" points="41.97 149.05 47.51 152.25 66.48 141.29 60.94 138.09 41.97 149.05"/></g><g class="cls-48"><polygon class="cls-57" points="107.18 186.7 112.72 189.89 127.93 181.11 122.39 177.91 107.18 186.7"/><polygon class="cls-58" points="96.31 180.42 101.85 183.62 125.12 170.18 119.58 166.99 96.31 180.42"/><polygon class="cls-59" points="85.44 174.15 90.98 177.34 111.57 165.46 106.03 162.26 85.44 174.15"/><polygon class="cls-60" points="74.57 167.87 80.11 171.07 95.33 162.28 89.79 159.09 74.57 167.87"/><polygon class="cls-61" points="63.71 161.6 69.25 164.8 79.09 159.11 73.55 155.91 63.71 161.6"/><polygon class="cls-62" points="52.84 155.32 58.38 158.52 76.64 147.98 71.1 144.78 52.84 155.32"/><polygon class="cls-63" points="41.97 149.05 47.51 152.25 58.61 145.84 53.07 142.64 41.97 149.05"/></g><path class="cls-64" d="M87.73,112.23c-4.79,2.76-12.56,2.75-17.38,0s-4.83-7.27,0-10,12.56-2.75,17.37,0S92.51,109.47,87.73,112.23Z"/><path class="cls-65" d="M47.89,136.06c-4.78,2.77-12.56,2.75-17.37,0s-4.84-7.27-.05-10,12.56-2.74,17.37,0S52.67,133.3,47.89,136.06Z"/><path class="cls-66" d="M80.59,109.13a1.54,1.54,0,0,1-.54-1c0-.22.3-.39.68-.39a6.47,6.47,0,0,0,1.46-.16,1.32,1.32,0,0,0,.94,0c.25-.14.33-.33.21-.46,1-.62,1.45-1.37,0-2.18a3.7,3.7,0,0,0-3.78,0,1.08,1.08,0,0,0-.79.12.32.32,0,0,0,0,.55,1.46,1.46,0,0,0-.28.84c0,.22-.3.4-.68.39A5.55,5.55,0,0,1,76,106.5a3,3,0,0,0-2.33.16l-1.08.63c-.22.12-.21.32,0,.44l5.83,3.37a.87.87,0,0,0,.77,0l1.09-.63C81,110.11,81,109.55,80.59,109.13Z"/><path class="cls-64" d="M42.49,127.61a1.61,1.61,0,0,0-1.45,0l-5.48,3.16,5.15,3a1.58,1.58,0,0,0,1.45,0,.45.45,0,0,0,0-.84l-3.69-2.13,4-2.33C42.9,128.22,42.89,127.84,42.49,127.61Z"/><path class="cls-67" d="M37.5,143.45l-10-5.78-2,1.13,10,5.78Zm-11.62-6.71-5.25-3-2,1.13,5.26,3Z"/><polygon class="cls-64" points="57.44 111.35 68.35 117.65 70.31 116.52 59.4 110.22 57.44 111.35"/><polygon class="cls-64" points="69.97 118.58 72.39 119.98 74.35 118.85 71.92 117.45 69.97 118.58"/><path class="cls-28" d="M154.06,158.21,54.14,100.67a9.72,9.72,0,0,1,0-16.83l79.7-46.34a9.76,9.76,0,0,1,9.75,0L243.49,95a9.72,9.72,0,0,1,0,16.83l-79.7,46.34A9.76,9.76,0,0,1,154.06,158.21Z"/><path class="cls-29" d="M154.5,157.27,55.22,100.1a9.47,9.47,0,0,1,0-16.4l78.28-45.51a9.49,9.49,0,0,1,9.5,0l99.27,57.16a9.48,9.48,0,0,1,0,16.41L164,157.25A9.49,9.49,0,0,1,154.5,157.27Z"/><path class="cls-30" d="M154.93,156.33,56.31,99.54a9.23,9.23,0,0,1,0-16l76.84-44.68a9.26,9.26,0,0,1,9.26,0L241,95.65a9.23,9.23,0,0,1,0,16l-76.85,44.68A9.24,9.24,0,0,1,154.93,156.33Z"/><path class="cls-31" d="M155.37,155.38,57.39,99a9,9,0,0,1,0-15.55l75.42-43.86a9,9,0,0,1,9,0l98,56.42a9,9,0,0,1,0,15.54l-75.42,43.86A9,9,0,0,1,155.37,155.38Z"/><path class="cls-32" d="M155.8,154.44l-97.32-56a8.73,8.73,0,0,1,0-15.12l74-43a8.72,8.72,0,0,1,8.75,0l97.33,56a8.74,8.74,0,0,1,0,15.12l-74,43A8.74,8.74,0,0,1,155.8,154.44Z"/><path class="cls-33" d="M156.23,153.5,59.56,97.84a8.5,8.5,0,0,1,0-14.7L132.1,40.93a8.51,8.51,0,0,1,8.51,0l96.68,55.67a8.49,8.49,0,0,1,0,14.69l-72.57,42.21A8.49,8.49,0,0,1,156.23,153.5Z"/><path class="cls-34" d="M156.67,152.56l-96-55.29a8.24,8.24,0,0,1,0-14.26l71.13-41.39a8.24,8.24,0,0,1,8.26,0L236,96.9a8.24,8.24,0,0,1,0,14.26l-71.13,41.39A8.24,8.24,0,0,1,156.67,152.56Z"/><path class="cls-35" d="M157.1,151.62,61.73,96.71a8,8,0,0,1,0-13.84l69.7-40.56a8,8,0,0,1,8,0L234.8,97.21a8,8,0,0,1,0,13.84l-69.7,40.56A8,8,0,0,1,157.1,151.62Z"/><path class="cls-36" d="M157.53,150.68,62.82,96.14a7.75,7.75,0,0,1,0-13.41L131.07,43a7.76,7.76,0,0,1,7.77,0l94.72,54.54a7.75,7.75,0,0,1,0,13.41l-68.27,39.74A7.78,7.78,0,0,1,157.53,150.68Z"/><path class="cls-37" d="M158,149.74,63.9,95.58a7.51,7.51,0,0,1,0-13l66.85-38.91a7.49,7.49,0,0,1,7.52,0l94.07,54.16a7.5,7.5,0,0,1,0,13l-66.85,38.92A7.51,7.51,0,0,1,158,149.74Z"/><path class="cls-38" d="M158.4,148.8,65,95a7.25,7.25,0,0,1,0-12.56l65.41-38.09a7.28,7.28,0,0,1,7.28,0l93.42,53.79a7.26,7.26,0,0,1,0,12.56l-65.42,38.09A7.28,7.28,0,0,1,158.4,148.8Z"/><path class="cls-39" d="M158.84,147.86,66.07,94.45a7,7,0,0,1,0-12.14l64-37.26a7,7,0,0,1,7,0l92.77,53.41a7,7,0,0,1,0,12.13l-64,37.27A7,7,0,0,1,158.84,147.86Z"/><polygon class="cls-68" points="159.97 147.53 43.5 80.43 132.54 28.8 249.02 95.9 159.97 147.53"/><polygon class="cls-44" points="159.97 146.69 44.71 79.73 43.5 80.43 159.97 147.53 247.3 96.62 246.09 96.48 159.97 146.69"/><path class="cls-69" d="M142,82.39a30.93,30.93,0,0,0,7.11-2.92c6.06-3.49,8.53-8.29,7.41-12.83C154.62,59.48,143.87,54,130.91,54c-1.4,0-2.77.07-4.11.19L124.93,48a59.64,59.64,0,0,1,19,.93,49.31,49.31,0,0,1,8.52,2.55h0l.25.11c.44.18.87.37,1.29.56l1,.46.07,0a26.32,26.32,0,0,1,9.58,7.24c8.54,10.63.5,23.3-18,28.29Z"/><path class="cls-70" d="M102.93,82.65c-5.79-4-8.57-8.44-8.54-13.65l10.39,0s0,.09,0,.14c0,3.69,2.28,7.06,6.1,9.68,4.76,3.26,11.9,5.33,19.87,5.31a41.1,41.1,0,0,0,13.43-2.18l5.36,5.38C133.86,92.55,114.49,90.61,102.93,82.65Z"/><path class="cls-71" d="M104.78,69,94.39,69c0-10.43,12.75-19.16,30.54-21l1.87,6.22C114.45,55.38,104.93,61.55,104.78,69Z"/><path class="cls-72" d="M75.77,88.53l6.72-3.88a.59.59,0,0,0,0-1.12L71.74,77.32a2.16,2.16,0,0,0-1.95,0L63.07,81.2a.59.59,0,0,0,0,1.12l4.44,2.57-1,.55-.65-.38a2.19,2.19,0,0,0-2,0l-.17.1,5.15,3,.17-.1a.6.6,0,0,0,0-1.14l-.64-.38.94-.54,4.44,2.56A2.16,2.16,0,0,0,75.77,88.53ZM64.34,81.91,71,78.05,81.22,84,74.54,87.8Z"/><path class="cls-73" d="M121.35,105.55l-5.52-3.19a2.16,2.16,0,0,0-2,0l-10.18,5.88c-.54.31-.53.81,0,1.12l5.51,3.19a2.16,2.16,0,0,0,2,0l10.18-5.88A.59.59,0,0,0,121.35,105.55Zm-10.41,6-5.48-3.17,9.4-5.42,5.48,3.16Z"/><path class="cls-74" d="M102.49,96.37,91.24,89.88a2.17,2.17,0,0,0-1.94,0l-7,4c-.54.31-.53.81,0,1.12l11.24,6.49a2.14,2.14,0,0,0,1.94,0l7-4A.59.59,0,0,0,102.49,96.37Zm-8.44,4.27L83.84,94.75l6.93-4L101,96.64Z"/><polygon class="cls-75" points="79.05 85.61 84.07 82.71 82.05 81.54 77.03 84.44 75.5 83.55 74.7 86.95 80.59 86.49 79.05 85.61"/><polygon class="cls-75" points="99.65 95.26 94.63 98.16 96.65 99.32 101.67 96.43 103.2 97.31 104 93.92 98.11 94.37 99.65 95.26"/><polygon class="cls-75" points="116.77 105.76 111.75 108.66 113.78 109.82 118.79 106.93 120.33 107.81 121.12 104.42 115.24 104.87 116.77 105.76"/><polygon class="cls-76" points="196.13 77.43 199.99 75.21 196.16 73 192.31 75.22 196.13 77.43"/><polygon class="cls-76" points="188.9 81.61 192.75 79.39 188.92 77.18 185.07 79.4 188.9 81.61"/><polygon class="cls-76" points="181.66 85.79 185.51 83.57 181.68 81.36 177.83 83.58 181.66 85.79"/><polygon class="cls-77" points="174.42 89.97 178.27 87.75 174.44 85.53 170.59 87.76 174.42 89.97"/><polygon class="cls-77" points="167.18 94.15 171.03 91.92 167.21 89.71 163.35 91.94 167.18 94.15"/><polygon class="cls-77" points="159.94 98.33 163.8 96.1 159.97 93.89 156.11 96.12 159.94 98.33"/><polygon class="cls-76" points="152.71 102.51 156.56 100.28 152.73 98.07 148.88 100.3 152.71 102.51"/><polygon class="cls-77" points="145.47 106.69 149.32 104.46 145.49 102.25 141.64 104.47 145.47 106.69"/><polygon class="cls-76" points="202.98 81.38 206.83 79.16 203 76.95 199.15 79.17 202.98 81.38"/><polygon class="cls-77" points="195.74 85.56 199.59 83.34 195.76 81.13 191.91 83.35 195.74 85.56"/><polygon class="cls-78" points="188.5 89.74 192.35 87.52 188.52 85.31 184.67 87.53 188.5 89.74"/><polygon class="cls-77" points="181.26 93.92 185.12 91.69 181.28 89.48 177.43 91.71 181.26 93.92"/><polygon class="cls-78" points="174.02 98.1 177.88 95.87 174.05 93.66 170.19 95.89 174.02 98.1"/><polygon class="cls-76" points="166.78 102.28 170.64 100.05 166.81 97.84 162.96 100.07 166.78 102.28"/><polygon class="cls-77" points="159.55 106.46 163.4 104.23 159.57 102.02 155.72 104.25 159.55 106.46"/><polygon class="cls-77" points="152.31 110.64 156.16 108.41 152.33 106.2 148.48 108.42 152.31 110.64"/><polygon class="cls-77" points="209.82 85.33 213.67 83.11 209.84 80.9 205.99 83.12 209.82 85.33"/><polygon class="cls-76" points="202.58 89.51 206.43 87.29 202.6 85.08 198.75 87.3 202.58 89.51"/><polygon class="cls-76" points="195.34 93.69 199.19 91.47 195.37 89.25 191.51 91.48 195.34 93.69"/><polygon class="cls-76" points="188.1 97.87 191.96 95.64 188.13 93.43 184.27 95.66 188.1 97.87"/><polygon class="cls-77" points="180.86 102.05 184.72 99.82 180.89 97.61 177.03 99.84 180.86 102.05"/><polygon class="cls-76" points="173.63 106.23 177.48 104 173.65 101.79 169.8 104.02 173.63 106.23"/><polygon class="cls-77" points="166.39 110.41 170.24 108.18 166.41 105.97 162.56 108.2 166.39 110.41"/><polygon class="cls-76" points="159.15 114.58 163 112.36 159.17 110.15 155.32 112.38 159.15 114.58"/><polygon class="cls-76" points="216.66 89.28 220.51 87.06 216.68 84.85 212.83 87.07 216.66 89.28"/><polygon class="cls-77" points="209.42 93.46 213.27 91.24 209.44 89.03 205.59 91.25 209.42 93.46"/><polygon class="cls-77" points="202.18 97.64 206.04 95.42 202.21 93.2 198.35 95.43 202.18 97.64"/><polygon class="cls-76" points="194.94 101.82 198.8 99.59 194.97 97.38 191.12 99.61 194.94 101.82"/><polygon class="cls-76" points="187.71 106 191.56 103.77 187.73 101.56 183.88 103.79 187.71 106"/><polygon class="cls-76" points="180.47 110.18 184.32 107.95 180.49 105.74 176.64 107.97 180.47 110.18"/><polygon class="cls-78" points="173.23 114.36 177.08 112.13 173.25 109.92 169.4 112.14 173.23 114.36"/><polygon class="cls-78" points="165.99 118.53 169.84 116.31 166.01 114.1 162.16 116.32 165.99 118.53"/><polygon class="cls-77" points="223.5 93.23 227.35 91.01 223.53 88.8 219.67 91.02 223.5 93.23"/><polygon class="cls-76" points="216.26 97.41 220.12 95.19 216.29 92.97 212.43 95.2 216.26 97.41"/><polygon class="cls-78" points="209.02 101.59 212.88 99.36 209.05 97.15 205.19 99.38 209.02 101.59"/><polygon class="cls-78" points="201.78 105.77 205.64 103.54 201.81 101.33 197.96 103.56 201.78 105.77"/><polygon class="cls-77" points="194.55 109.95 198.4 107.72 194.57 105.51 190.72 107.74 194.55 109.95"/><polygon class="cls-77" points="187.31 114.13 191.16 111.9 187.33 109.69 183.48 111.92 187.31 114.13"/><polygon class="cls-77" points="180.07 118.31 183.92 116.08 180.09 113.87 176.24 116.09 180.07 118.31"/><polygon class="cls-77" points="172.83 122.48 176.69 120.26 172.86 118.05 169 120.27 172.83 122.48"/><polygon class="cls-76" points="230.34 97.18 234.19 94.96 230.37 92.75 226.51 94.97 230.34 97.18"/><polygon class="cls-76" points="223.1 101.36 226.96 99.14 223.13 96.92 219.27 99.15 223.1 101.36"/><polygon class="cls-77" points="215.87 105.54 219.72 103.31 215.89 101.1 212.04 103.33 215.87 105.54"/><polygon class="cls-76" points="208.63 109.72 212.48 107.49 208.65 105.28 204.8 107.51 208.63 109.72"/><polygon class="cls-77" points="201.39 113.9 205.24 111.67 201.41 109.46 197.56 111.69 201.39 113.9"/><polygon class="cls-77" points="194.15 118.08 198 115.85 194.17 113.64 190.32 115.87 194.15 118.08"/><polygon class="cls-76" points="186.91 122.26 190.76 120.03 186.94 117.82 183.08 120.05 186.91 122.26"/><polygon class="cls-79" points="179.67 126.44 183.53 124.21 179.7 122 175.84 124.22 179.67 126.44"/><polygon class="cls-45" points="74.07 71.57 176.45 130.68 176.99 130.37 74.61 71.25 74.07 71.57"/><polygon class="cls-76" points="125.46 121.1 138.62 113.1 134.79 110.89 121.63 118.89 125.46 121.1"/><polygon class="cls-80" points="132.12 125.1 142.79 118.55 138.96 116.34 128.29 122.89 132.12 125.1"/><polygon class="cls-81" points="139.12 129.1 147.13 124.22 143.3 122.01 135.29 126.89 139.12 129.1"/><polygon class="cls-82" points="145.96 132.93 151.79 129.05 147.96 126.84 142.13 130.72 145.96 132.93"/><polygon class="cls-83" points="152.62 137.26 156.46 134.88 152.63 132.67 148.79 135.05 152.62 137.26"/><polygon class="cls-84" points="159.29 141.1 161.46 139.72 157.63 137.51 155.46 138.88 159.29 141.1"/><g class="cls-85"><path class="cls-47" d="M319.45,131.06l10.09,5.82a1.65,1.65,0,0,0,1.5,0,.45.45,0,0,0,0-.86L321,130.19a1.65,1.65,0,0,0-1.5,0A.46.46,0,0,0,319.45,131.06Zm9.06,6.42-10.09-5.83a1.65,1.65,0,0,0-1.5,0,.46.46,0,0,0,0,.87L327,138.34a1.65,1.65,0,0,0,1.5,0C328.93,138.11,328.92,137.72,328.51,137.48ZM326,138.94l-10.08-5.83a1.67,1.67,0,0,0-1.51,0,.46.46,0,0,0,0,.87l10.08,5.82a1.65,1.65,0,0,0,1.5,0C326.4,139.57,326.4,139.18,326,138.94Z"/></g><path class="cls-41" d="M243.22,144l19.92-11.5-6.27-3.62L237,140.39Zm36.65-11.71-6.27-3.63-28.47,16.44,6.27,3.63Zm-44.83,7,11.37-6.56-6.27-3.62-11.37,6.56Zm44.21-3.6-27.7,16-27.89-16.09,25.51-14.73,17.08,9.87,2.21-1.28-19.31-11.14-29.91,17.27,32.32,18.66L281.47,137Z"/><path class="cls-28" d="M236.56,135.21,136.64,77.67a9.72,9.72,0,0,1,0-16.83l79.7-46.34a9.76,9.76,0,0,1,9.75,0L326,72a9.72,9.72,0,0,1,0,16.83l-79.7,46.34A9.76,9.76,0,0,1,236.56,135.21Z"/><path class="cls-29" d="M237,134.27,137.72,77.1a9.47,9.47,0,0,1,0-16.4L216,15.19a9.49,9.49,0,0,1,9.5,0l99.27,57.16a9.48,9.48,0,0,1,0,16.41l-78.27,45.5A9.49,9.49,0,0,1,237,134.27Z"/><path class="cls-30" d="M237.43,133.33,138.81,76.54a9.23,9.23,0,0,1,0-16l76.84-44.68a9.26,9.26,0,0,1,9.26,0l98.62,56.79a9.23,9.23,0,0,1,0,16l-76.85,44.68A9.24,9.24,0,0,1,237.43,133.33Z"/><path class="cls-31" d="M237.87,132.38,139.89,76a9,9,0,0,1,0-15.55l75.42-43.86a9,9,0,0,1,9,0l98,56.42a9,9,0,0,1,0,15.54l-75.42,43.86A9,9,0,0,1,237.87,132.38Z"/><path class="cls-32" d="M238.3,131.44,141,75.4a8.73,8.73,0,0,1,0-15.12l74-43a8.72,8.72,0,0,1,8.75,0l97.33,56a8.74,8.74,0,0,1,0,15.12l-74,43A8.74,8.74,0,0,1,238.3,131.44Z"/><path class="cls-33" d="M238.73,130.5,142.06,74.84a8.5,8.5,0,0,1,0-14.7L214.6,17.93a8.51,8.51,0,0,1,8.51,0l96.68,55.67a8.49,8.49,0,0,1,0,14.69l-72.57,42.21A8.49,8.49,0,0,1,238.73,130.5Z"/><path class="cls-34" d="M239.17,129.56l-96-55.29a8.24,8.24,0,0,1,0-14.26l71.13-41.39a8.24,8.24,0,0,1,8.26,0l96,55.29a8.24,8.24,0,0,1,0,14.26l-71.13,41.39A8.24,8.24,0,0,1,239.17,129.56Z"/><path class="cls-35" d="M239.6,128.62,144.23,73.71a8,8,0,0,1,0-13.84l69.7-40.56a8,8,0,0,1,8,0L317.3,74.21a8,8,0,0,1,0,13.84l-69.7,40.56A8,8,0,0,1,239.6,128.62Z"/><path class="cls-36" d="M240,127.68,145.32,73.14a7.75,7.75,0,0,1,0-13.41L213.57,20a7.76,7.76,0,0,1,7.77,0l94.72,54.54a7.75,7.75,0,0,1,0,13.41l-68.27,39.74A7.78,7.78,0,0,1,240,127.68Z"/><path class="cls-37" d="M240.47,126.74,146.4,72.58a7.51,7.51,0,0,1,0-13l66.85-38.91a7.49,7.49,0,0,1,7.52,0l94.07,54.16a7.5,7.5,0,0,1,0,13L248,126.73A7.51,7.51,0,0,1,240.47,126.74Z"/><path class="cls-38" d="M240.9,125.8,147.48,72a7.25,7.25,0,0,1,0-12.56l65.41-38.09a7.28,7.28,0,0,1,7.28,0l93.42,53.79a7.26,7.26,0,0,1,0,12.56l-65.42,38.09A7.28,7.28,0,0,1,240.9,125.8Z"/><path class="cls-39" d="M241.34,124.86,148.57,71.45a7,7,0,0,1,0-12.14l64-37.26a7,7,0,0,1,7,0l92.77,53.41a7,7,0,0,1,0,12.13l-64,37.27A7,7,0,0,1,241.34,124.86Z"/><polygon class="cls-86" points="242.47 124.53 126 57.43 215.04 5.8 331.52 72.9 242.47 124.53"/><path class="cls-45" d="M212.12,19.22l-.2-.12L150.05,54.83l96.48,55.7.2.12,61.88-35.73Zm2.27,25.6,24.25,14-19.8,11.43-24.25-14Zm-20.6,11L171.88,43.14l19.81-11.43,21.9,12.65Zm45.65,2.57-24.25-14,19.44-11.22,24.25,14ZM259.68,47.6l24.25,14L264.49,72.82l-24.25-14ZM218,70.72,198.77,81.84l.17.29L174.36,67.94l19.43-11.22Zm.8.46,24.25,14L223.83,96.3l.16.29L199.41,82.4Zm.8-.46,19.8-11.44,24.25,14-19.8,11.44Zm44.85,3,22.28,12.86L267,98,244.69,85.18Zm.81-.47,19.43-11.22L307,74.92,287.57,86.15Zm-31.47-40.6L214.39,43.9l-21.9-12.65L211.92,20ZM171.08,43.61,193,56.25,173.72,67.38l.17.29L151.65,54.83Zm53.38,53.25,19.43-11.22L266.17,98.5l-19.44,11.22Z"/><g class="cls-87"><path class="cls-88" d="M171.94,42.93c2.22,1.28,21.89-2,27.69,1.4s-4.72,15.12,2.44,19.25S251.6,54.94,258,58.64s-5.68,18.39.61,22,17.6,1,21.18,3-2.93,5.82-.83,7l-32.25,18.62L152.2,54.76Z"/></g><path class="cls-89" d="M278.61,91.36a1.52,1.52,0,0,1-.77-1c-.19-.88.42-1.75,1.13-2.75.58-.83,1.31-1.87,1.16-2.52,0-.11-.09-.41-.7-.77-1.37-.79-4.35-.8-7.51-.81-4.64,0-9.9,0-13.67-2.21s-2.11-7-.62-11.79c1.4-4.46,2.72-8.67,0-10.23-2.88-1.67-14.73.47-26.18,2.54-13.29,2.4-25.85,4.66-29.76,2.4-4.28-2.47-3-7.24-2-11.45s1.55-6.63-.48-7.8c-3.4-2-12.32-1.51-18.83-1.19-5.14.26-7.87.37-8.86-.21l.75-1.3c.66.38,4.58.19,8,0,7.08-.35,15.88-.79,19.66,1.39,3.16,1.83,2.16,5.71,1.19,9.47-1,4.05-2,7.88,1.25,9.78s16.88-.44,28.75-2.58C244,58.05,255,56.05,258.39,58c3.75,2.16,2.19,7.15.68,12-1.38,4.39-2.68,8.53-.07,10,3.42,2,8.47,2,12.92,2,3.52,0,6.55,0,8.26,1a2.71,2.71,0,0,1,1.42,1.74c.29,1.31-.61,2.58-1.41,3.71-.34.49-.92,1.31-.88,1.57Z"/><path class="cls-90" d="M261.58,58.16c0,.72-1,1.29-2.23,1.29s-2.24-.58-2.24-1.3,1-1.28,2.23-1.28S261.58,57.45,261.58,58.16Z"/><path class="cls-28" d="M261.27,60.76l-7.42-12.71L221,29a6.7,6.7,0,0,1,0-11.6l15.17-8.93a6.72,6.72,0,0,1,6.72,0l24.42,14.14,24.42,14.14a6.7,6.7,0,0,1,0,11.6L268,60.75A6.72,6.72,0,0,1,261.27,60.76Z"/><path class="cls-29" d="M221.71,17.3l5.74-3.4c.14-.08,5.63-3.21,5.77-3.13l3.35-1.7a6.89,6.89,0,0,1,6.52.23L262.5,20.54l4.44,2.57,23.87,13.82.39.24a6.54,6.54,0,0,1-.35,11.08l-6.2,3.28c-.14.08-6.09,3.11-6.22,3l-10.66,4.82a6.85,6.85,0,0,1-6.5-.21l-7.57-12-1.44-.84L221.72,28.6A6.52,6.52,0,0,1,221.71,17.3Z"/><path class="cls-30" d="M222.45,17.2l5.61-3.32c.27-.16,5.4-3,5.68-2.82L237,9.68c1.7-1,4.62-.51,6.33.47l19,11,4.33,2.51,23.3,13.5c.12.06.28.16.39.23A6.37,6.37,0,0,1,290,48.17l-6,3.22c-.27.16-5.81,2.88-6.09,2.73L267.55,58c-1.7,1-4.58.54-6.28-.44l-7.72-11.35-1.4-.82-29.68-17.2A6.36,6.36,0,0,1,222.45,17.2Z"/><path class="cls-31" d="M223.2,17.11l5.47-3.25c.41-.24,5.17-2.75,5.58-2.51l3.19-1.07c1.51-.87,4.61-.16,6.12.71l18.51,10.72,4.23,2.45L289,37.33l.37.22a6.2,6.2,0,0,1-.28,10.54l-5.82,3.16c-.41.24-5.54,2.66-5.95,2.42l-10,3c-1.51.88-4.54.2-6.05-.67L253.4,45.32,252,44.53,223.22,27.82A6.19,6.19,0,0,1,223.2,17.11Z"/><path class="cls-32" d="M224,17l5.32-3.18c.55-.31,4.95-2.51,5.5-2.2l3.11-.74c1.32-.77,4.6.19,5.92.95l18.05,10.45L266,24.68l22.19,12.84.36.22A6,6,0,0,1,288.28,48l-5.64,3.1c-.55.32-5.27,2.44-5.81,2.12L267.1,55.3c-1.32.76-4.51-.14-5.83-.9l-8-10-1.32-.77-28-16.2A6,6,0,0,1,224,17Z"/><path class="cls-33" d="M224.7,16.92l5.18-3.11c.68-.4,4.72-2.28,5.4-1.89l3-.42c1.14-.66,4.6.53,5.73,1.19l17.59,10.18,4,2.33,21.63,12.52.35.21a5.87,5.87,0,0,1-.21,10L282,51c-.68.39-5,2.21-5.67,1.82l-9.42,1.14c-1.13.66-4.48-.47-5.61-1.12L253.1,43.5l-1.29-.75-27.1-15.7A5.86,5.86,0,0,1,224.7,16.92Z"/><path class="cls-34" d="M225.44,16.82l5.05-3c.82-.47,4.49-2,5.31-1.57l2.95-.11c.94-.54,4.58.89,5.53,1.43l17.13,9.93,3.92,2.26,21.07,12.2.34.21a5.7,5.7,0,0,1-.17,9.72l-5.27,3c-.82.47-4.72,2-5.54,1.52l-9.1.22c-1,.55-4.45-.8-5.4-1.35L253,42.59l-1.26-.73-26.24-15.2A5.69,5.69,0,0,1,225.44,16.82Z"/><path class="cls-35" d="M226.19,16.73l4.91-3c1-.55,4.26-1.81,5.21-1.26l2.88.21c.75-.44,4.57,1.23,5.33,1.67L261.2,24l3.8,2.2,20.52,11.88.32.2a5.53,5.53,0,0,1-.13,9.45l-5.08,2.92c-.95.55-4.44,1.76-5.4,1.21l-8.8-.69c-.75.44-4.41-1.14-5.17-1.58l-8.45-8L251.59,41l-25.38-14.7A5.51,5.51,0,0,1,226.19,16.73Z"/><path class="cls-36" d="M226.94,16.63l4.76-2.89c1.09-.64,4-1.58,5.13-1l2.79.53c.57-.33,4.57,1.58,5.14,1.91L261,24.62l3.7,2.15,20,11.55.31.19a5.36,5.36,0,0,1-.09,9.18L280,50.55c-1.09.63-4.17,1.54-5.26.91l-8.49-1.61c-.56.32-4.38-1.48-4.95-1.81l-8.6-7.27-1.18-.68L227,25.88A5.35,5.35,0,0,1,226.94,16.63Z"/><path class="cls-37" d="M227.69,16.54l4.62-2.83c1.23-.71,3.8-1.34,5-.63l2.72.85c.38-.22,4.56,1.93,4.93,2.14l15.77,9.13,3.6,2.09,19.4,11.23.3.18a5.19,5.19,0,0,1-.06,8.9l-4.71,2.81c-1.23.71-3.9,1.32-5.12.61L266,48.48c-.38.22-4.35-1.81-4.73-2l-8.75-6.59-1.14-.66L227.7,25.49A5.17,5.17,0,0,1,227.69,16.54Z"/><path class="cls-38" d="M228.44,16.44l4.48-2.75a5.47,5.47,0,0,1,4.94-.32l2.64,1.16a48.82,48.82,0,0,1,4.73,2.39l15.31,8.87,3.49,2,18.84,10.91.3.17a5,5,0,0,1,0,8.63l-4.52,2.75a5.61,5.61,0,0,1-5,.31l-7.86-3.46a43.15,43.15,0,0,1-4.51-2.26L252.36,39l-1.1-.64L228.45,25.1A5,5,0,0,1,228.44,16.44Z"/><path class="cls-39" d="M273.1,50.13l-22-12.71-22-12.71a4.83,4.83,0,0,1,0-8.36l4.34-2.69a4.83,4.83,0,0,1,4.85,0l21.95,12.71,21.95,12.71a4.83,4.83,0,0,1,0,8.36L278,50.13A4.83,4.83,0,0,1,273.1,50.13Z"/><path class="cls-91" d="M262.61,56l-3.76-14.49L219,18.46c-4.75-2.75-4.16-7.54,1.33-10.71l5.19-3c5.49-3.17,13.79-3.51,18.55-.76l45.68,26.44c4.76,2.74,4.16,7.53-1.33,10.7Z"/><path class="cls-75" d="M234.29,17.8l8.77-5.07-2.76-1.59-8.77,5.06Zm16.14-5.16L247.67,11l-12.54,7.24,2.76,1.6Zm-19.74,3.08,5-2.89-2.76-1.6-5,2.89Zm19.47-1.59-12.2,7-12.29-7.09L236.91,7.6,244.43,12l1-.57-8.5-4.9-13.18,7.6L238,22.3l13.18-7.6Z"/><polygon class="cls-92" points="242.47 123.69 127.21 56.73 126 57.43 242.47 124.53 329.8 73.62 328.59 73.48 242.47 123.69"/><g class="cls-93"><path class="cls-5" d="M251,26.93a.17.17,0,0,1,0,.31.5.5,0,0,1-.5,0,.3.3,0,0,1-.08-.08.19.19,0,0,1,0-.15.3.3,0,0,1,.08-.08A.52.52,0,0,1,251,26.93Z"/><g class="cls-3"><path class="cls-5" d="M262,21.39a.15.15,0,0,1,.08.08.18.18,0,0,1-.08.23.5.5,0,0,1-.5,0c-.14-.08-.13-.22,0-.31a.53.53,0,0,1,.41,0A.2.2,0,0,1,262,21.39Z"/><path class="cls-5" d="M254.22,19.87a1,1,0,0,1,0,1.83,3,3,0,0,1-2.91,0,1,1,0,0,1,0-1.82A3,3,0,0,1,254.22,19.87Z"/><path class="cls-94" d="M263.11,21.77a.47.47,0,0,1-.24.36l-2.53,1.61-.21-.09L262.69,22c.11-.07.17-.14.17-.24a.3.3,0,0,0-.16-.24.74.74,0,0,0-.38-.1l-.21,0a.15.15,0,0,0-.08-.08.2.2,0,0,0-.08,0,1.1,1.1,0,0,1,.37-.06,1.08,1.08,0,0,1,.56.14A.44.44,0,0,1,263.11,21.77Z"/><path class="cls-94" d="M255.44,26.63,260,23.74l.22.09-4.58,2.91A8.81,8.81,0,0,1,250.91,28a8.43,8.43,0,0,1-4.66-1.15,3.41,3.41,0,0,1-1.91-2.92,3.62,3.62,0,0,1,2-3l7.26-4.61a1,1,0,0,1,.56-.15,1,1,0,0,1,.56.13.44.44,0,0,1,.23.36.47.47,0,0,1-.24.35l-7.26,4.61a2.74,2.74,0,0,0-1.49,2.26,2.57,2.57,0,0,0,1.44,2.22,6.36,6.36,0,0,0,3.09.88.2.2,0,0,0,0,.15,6.49,6.49,0,0,1-3.27-.92,2.69,2.69,0,0,1-1.51-2.33,2.89,2.89,0,0,1,1.57-2.37l7.26-4.61a.31.31,0,0,0,.16-.24.28.28,0,0,0-.16-.24.74.74,0,0,0-.38-.1.71.71,0,0,0-.39.11l-7.25,4.61a3.49,3.49,0,0,0-1.9,2.86,3.27,3.27,0,0,0,1.84,2.8,8.2,8.2,0,0,0,4.48,1.12A8.47,8.47,0,0,0,255.44,26.63Z"/><path class="cls-5" d="M272.44,30.82c-.07-.05-.05-.12.05-.18l.11-.05c.36-.11.72-.22,1.1-.3l.2,0,.19,0,.07.07-.07.14-.09,0-.43.07a5.65,5.65,0,0,0-.68.11l-.1,0-.07,0a.24.24,0,0,1-.26,0Z"/><path class="cls-5" d="M268,26.86c.23.14.26.33.05.53a1.72,1.72,0,0,1-.43.32c-.2.13-.41.26-.62.41a.77.77,0,0,0-.18,1.07,2.46,2.46,0,0,0,.61.59l.27.17a10,10,0,0,0,1.6.82,4,4,0,0,0,.87.26l.13,0,0,.07,0,0h-.35a3.84,3.84,0,0,1-.81-.26,11.84,11.84,0,0,1-1.75-.85c-.15-.09-.26-.18-.39-.27a1.47,1.47,0,0,1-.71-.95.93.93,0,0,1,.29-.86,3.73,3.73,0,0,1,.58-.47l.39-.25c.15-.09.17-.15.08-.21l-.13-.06a3.65,3.65,0,0,0-.76-.14c-1-.09-1.88-.13-2.83-.13-1.32,0-2.64.1-4,.18-.3,0-.58,0-.88.05a2.45,2.45,0,0,1-.68-.05l-.16-.07c-.16-.11-.2-.26-.06-.4l.29-.19a9.62,9.62,0,0,1,1.7-.54c.92-.22,1.86-.42,2.78-.59a1.48,1.48,0,0,0,.3-.07l-.07-.07-.11-.05c-.64-.28-1.33-.52-2-.76l-.83-.31-.22-.09a6.38,6.38,0,0,1-.91-.44c-.13-.06-.15-.07-.21,0l-.07,0a1,1,0,0,1-.23.17,3.79,3.79,0,0,1-1.51.5,5.56,5.56,0,0,1-1.16,0,2.15,2.15,0,0,1-.94-.26l-.15-.11a.51.51,0,0,1-.1-.66,1.42,1.42,0,0,1,.38-.35,2.12,2.12,0,0,1,.76-.3,3.94,3.94,0,0,1,1.49,0,1,1,0,0,1,.48.15l.08.05a.27.27,0,0,1,.11.3l-.08.07a.37.37,0,0,1-.31,0,2.73,2.73,0,0,0-1.91.05.62.62,0,0,0-.2.1.53.53,0,0,0-.19.17.21.21,0,0,0,.07.35l.05,0a1.93,1.93,0,0,0,.64.14,4,4,0,0,0,1.73-.22,1.53,1.53,0,0,0,.34-.17.71.71,0,0,0,.26-.22.4.4,0,0,0,.14-.29l0-.13.14,0,.19,0,.09.09a.48.48,0,0,0,.3.45,4.84,4.84,0,0,0,.46.24l.36.17.21.09c.62.26,1.29.45,2,.66l1.17.34.28.1.05,0a.23.23,0,0,1,0,.43l-.1.06a1.33,1.33,0,0,1-.32.11c-.36.1-.76.18-1.13.26-1.09.25-2.17.5-3.21.79a.94.94,0,0,0-.32.11l0,0a2.33,2.33,0,0,0,.43.06c.61,0,1.2,0,1.78-.08,1.59-.1,3.17-.15,4.75-.11.43,0,.84,0,1.25.06a4.33,4.33,0,0,1,.87.17A.73.73,0,0,1,268,26.86Z"/><path class="cls-5" d="M273,32.7h0l-.15,0-.11,0h-.05a16.56,16.56,0,0,1-2.45-.61,1.38,1.38,0,0,1-.41-.18c-.32-.19-.32-.45,0-.66l.06,0,.2-.1h.2l0,0,0,0,.17,0a7.78,7.78,0,0,1,.89-.18h.17l.19,0,.06.09a.12.12,0,0,1,0,.15l-.09,0-.33.08c-.27.05-.55.1-.8.17a2.8,2.8,0,0,0-.37.1l-.11.06c-.13.09-.13.18.05.29l.08.05a.58.58,0,0,0,.24.11A16.4,16.4,0,0,0,273,32.7Z"/><path class="cls-94" d="M280.26,35.49c.14.09.16.2,0,.32a1,1,0,0,1-.25.2,3.19,3.19,0,0,0-.38.26.44.44,0,0,0-.11.64,1.16,1.16,0,0,0,.37.36l.17.11a6.3,6.3,0,0,0,1,.5,2.74,2.74,0,0,0,.53.16l.07,0,0,0-.06,0-.18,0A3.92,3.92,0,0,1,281,38a7.23,7.23,0,0,1-1.08-.53l-.24-.16a1,1,0,0,1-.44-.59.62.62,0,0,1,.19-.52,2.2,2.2,0,0,1,.34-.28l.25-.16c.09-.06.11-.09.05-.13l-.08,0a2.49,2.49,0,0,0-.46-.09,16.91,16.91,0,0,0-1.73-.07c-.81,0-1.62.06-2.43.1a4.71,4.71,0,0,1-.53,0,1.14,1.14,0,0,1-.42,0l-.09,0c-.1-.06-.13-.17,0-.24l.18-.12a6.33,6.33,0,0,1,1-.33c.55-.13,1.13-.25,1.69-.36l.19,0,0,0-.07,0c-.4-.17-.81-.31-1.24-.46a7.22,7.22,0,0,1-1.19-.51c-.09,0-.1,0-.13,0l-.05,0-.14.11a2.32,2.32,0,0,1-.92.3,4.1,4.1,0,0,1-.7,0,1.31,1.31,0,0,1-.58-.16l-.09-.07a.3.3,0,0,1-.07-.4,1.19,1.19,0,0,1,.23-.22,1.44,1.44,0,0,1,.36-.15l.11,0,.15,0a2.42,2.42,0,0,1,.76,0,.6.6,0,0,1,.3.1l0,0a.16.16,0,0,1,.07.18l-.05,0h-.2a1.63,1.63,0,0,0-1.15,0l-.13.07-.11.1a.12.12,0,0,0,0,.21l0,0a1.17,1.17,0,0,0,.39.09,2.36,2.36,0,0,0,1.06-.14.75.75,0,0,0,.2-.1l.16-.13a.21.21,0,0,0,.09-.19l0-.07.08,0,.12,0,0,0a.33.33,0,0,0,.19.28l.28.15a9,9,0,0,0,1.56.55l.71.22.16.06,0,0a.15.15,0,0,1,0,.27l-.06,0-.19.07-.7.16c-.66.15-1.32.3-2,.48l-.19.06,0,0a.86.86,0,0,0,.26,0,9.93,9.93,0,0,0,1.1,0c1-.06,1.93-.1,2.9-.07.26,0,.51,0,.76,0a2.08,2.08,0,0,1,.53.1Z"/></g></g></g></g></g></svg>