<svg xmlns="http://www.w3.org/2000/svg" viewBox="0 0 469.61 197.31"><defs><style>.cls-1{isolation:isolate;}.cls-2{mix-blend-mode:screen;}.cls-2,.cls-4{opacity:0.5;}.cls-3{fill:#ebdef3;}.cls-4{fill:#25054d;}</style></defs><g class="cls-1"><g id="Layer_2" data-name="Layer 2"><g id="Layer_1-2" data-name="Layer 1"><g class="cls-2"><path class="cls-3" d="M390.85,102.57l-35.11,20.27-35-20.23,35.11-20.27,35,20.23Zm2.62,0L355.81,80.83,318.09,102.6l37.66,21.75,37.72-21.78Z"/><path class="cls-3" d="M464.65,146.67l-66.49,38.39L331.8,146.75l66.49-38.39,66.36,38.31Zm0,12.25-66.49,38.39L331.8,159l66.49-38.38,66.36,38.3Zm5-12.24L398.28,105.5l-71.44,41.24,71.33,41.18,71.44-41.24Z"/><polygon class="cls-3" points="431.63 108.35 394.63 86.98 397.02 85.6 434.03 106.97 431.63 108.35"/><polygon class="cls-3" points="312.02 113.47 316.6 116.11 318.87 114.79 314.3 112.15 312.02 113.47"/><polygon class="cls-3" points="326.84 119.4 320.75 115.88 318.47 117.19 324.57 120.71 326.84 119.4"/><polygon class="cls-3" points="320.08 112.06 332.75 119.38 335.02 118.06 322.35 110.75 320.08 112.06"/><polygon class="cls-3" points="320.48 109.67 313.25 105.5 310.98 106.81 318.2 110.98 320.48 109.67"/><polygon class="cls-3" points="334.62 120.46 337.44 122.08 339.71 120.77 336.9 119.15 334.62 120.46"/><polygon class="cls-3" points="312.42 111.07 308.01 108.52 305.73 109.83 310.15 112.38 312.42 111.07"/><polygon class="cls-3" points="106.87 52.15 30.42 8.02 31.07 7.65 107.52 51.78 106.87 52.15"/><polygon class="cls-3" points="54.01 0 40.92 7.55 107.65 46.08 122.52 37.49 126.64 26.82 114.09 24.39 114.31 9.41 89.12 12.72 93.7 3.34 66.55 3.81 54.01 0"/><polygon class="cls-4" points="49.25 2.75 40.92 7.55 107.65 46.08 118.95 39.55 115.01 28.7 102.19 29.19 106.88 14.04 86.31 16.59 86.42 9.79 65.09 9.49 49.25 2.75"/><polygon class="cls-3" points="46.27 4.46 40.92 7.55 107.65 46.08 113.3 42.82 114.16 36.79 98.65 36.07 95.6 24.01 78.28 20.19 77.95 15.54 57.65 12.75 46.27 4.46"/><path class="cls-3" d="M65.15,34l-8.42-4.86-2,1.13,8.42,4.86Zm-3.83,3-10-5.8-2,1.13,10,5.8Zm12.35,1.89-6.9-4-2,1.13,6.89,4ZM78,41.41l-2.69-1.55-2,1.13L76,42.54ZM38.47,18.59,32.31,15l-2,1.14,6.15,3.55Zm-1.3,4.5-9.39-5.43-2,1.14,9.4,5.42ZM63,38,61,39.1l2.64,1.52,2-1.13ZM51.05,25.86l-11-6.33-2,1.14,11,6.32ZM55.1,28.2l-2.43-1.41-2,1.14,2.44,1.4Zm-5.45,2.09-5.27-3-2,1.13,5.28,3.05ZM38.8,24l-2,1.14,4,2.28,2-1.13ZM65.24,41.56l7.2,4.16,2-1.14-7.2-4.15Zm23.24,5.91-8.87-5.12-2,1.13,8.88,5.13Zm5.74,3.31-4.11-2.37-2,1.13,4.11,2.38Zm-46-2-6.9-4-2,1.13,6.9,4Zm2.16-1.72,7.21,4.16,2-1.13L52.37,46Zm10.83,1,3.15,1.82,2-1.14L63.2,47Zm-8.57,5.54,6.9,4,2-1.14-6.9-4Zm6.57-1.45L62.31,54l2-1.14L61.2,51ZM19.05,29l4,2.29,2-1.14L21,27.85Zm10.62,9.1-2.43-1.41-2,1.14,2.43,1.41Zm2.2-4-5.27-3-2,1.13,5.28,3Zm11.67,6.74-10-5.8-2,1.14,10,5.8Zm2,11.62-7.21-4.15-2,1.13,7.2,4.16ZM26,27.77l11,6.32L39,33,28,26.63Zm26.69,15.4,6.9,4,2-1.14-6.9-4Zm7.12,17.56L47.15,53.41l-2,1.14,12.69,7.32ZM53.05,41.1l-8.42-4.86-2,1.13,8.42,4.87ZM28,42.34l-8.52-4.92-2,1.13L26,43.48ZM50.75,45l-5.59-3.22-2,1.13,5.58,3.22ZM17.83,36.48l-5.28-3-2,1.13,5.27,3Zm-5.14-5.93,11,6.32,2-1.13-11-6.33Zm8,12.83-11-6.33-2,1.14,11,6.32Zm19,.5L31.29,39l-2,1.13L37.75,45Zm3.61,12.56-6.9-4-2,1.13,6.9,4ZM24.41,47.79l8.42,4.87,2-1.14-8.42-4.86Zm12.29-.41-7.1-4.1-2,1.13,7.1,4.1ZM20.35,45.45l2.44,1.41,2-1.14-2.44-1.4ZM78,55.51l-2,1.14L80.15,59l2-1.14ZM69,63l2.13,1.23,2-1.14-2.13-1.23Zm-9.31-.14,6.9,4,2-1.14-6.9-4ZM26.37,25.7l-6.26-3.61-2,1.13,6.25,3.61ZM66,50.85l8.42,4.86,2-1.14L68,49.71ZM38.6,35,41,36.44l2-1.14-2.44-1.4ZM77.43,60.41,65.61,53.59l-2,1.14,11.82,6.82Zm-7.8.74-6.48-3.74-2,1.14,6.48,3.74ZM53,51.55l-3.15-1.81-2,1.13L51,52.69ZM19.39,26.91,15.58,24.7l-2,1.14L17.43,28ZM8.12,36.11,2,32.56,0,33.7l6.15,3.55Zm2.81-3.61L6.5,29.94l-2,1.14L9,33.63Zm2.1-4-2-1.15-2,1.14,2,1.15Z"/></g></g></g></g></svg>