<svg xmlns="http://www.w3.org/2000/svg" xmlns:xlink="http://www.w3.org/1999/xlink" viewBox="0 0 33.9 16.21"><defs><style>.cls-1{fill:url(#linear-gradient);}.cls-2{fill:url(#linear-gradient-2);}.cls-3{fill:url(#linear-gradient-3);}.cls-4{fill:url(#linear-gradient-4);}.cls-5{fill:url(#linear-gradient-5);}</style><linearGradient id="linear-gradient" y1="9.06" x2="12.26" y2="9.06" gradientUnits="userSpaceOnUse"><stop offset="0.04" stop-color="#e44fc4"/><stop offset="1" stop-color="#ef57c8"/></linearGradient><linearGradient id="linear-gradient-2" x1="13.5" y1="4.71" x2="18.01" y2="4.71" xlink:href="#linear-gradient"/><linearGradient id="linear-gradient-3" x1="19.75" y1="3.77" x2="22.06" y2="3.77" xlink:href="#linear-gradient"/><linearGradient id="linear-gradient-4" x1="22.9" y1="4.77" x2="27.88" y2="4.77" xlink:href="#linear-gradient"/><linearGradient id="linear-gradient-5" x1="29.4" y1="4.71" x2="33.9" y2="4.71" xlink:href="#linear-gradient"/></defs><g id="Layer_2" data-name="Layer 2"><g id="Layer_1-2" data-name="Layer 1"><path class="cls-1" d="M6.12,14.19A3.51,3.51,0,0,0,8,13.75,3.45,3.45,0,0,0,9.17,12.6,4.86,4.86,0,0,0,9.81,11,8.85,8.85,0,0,0,10,9.11V1.91h2.26v7.2a10.57,10.57,0,0,1-.34,2.75,6.41,6.41,0,0,1-1.08,2.26,5.07,5.07,0,0,1-1.91,1.53,6.38,6.38,0,0,1-2.81.56,6.25,6.25,0,0,1-2.87-.59A5.14,5.14,0,0,1,1.36,14a6.38,6.38,0,0,1-1-2.27A11.07,11.07,0,0,1,0,9.11V1.91H2.24v7.2A8.91,8.91,0,0,0,2.43,11a4.86,4.86,0,0,0,.64,1.62,3.28,3.28,0,0,0,1.2,1.14A3.64,3.64,0,0,0,6.12,14.19Z"/><path class="cls-2" d="M17.67,7.48a.52.52,0,0,1-.58-.6V4.38c0-1.14-.42-1.57-1.39-1.57-.81,0-1.28.45-1.28,1.57v3.1h-.35a.55.55,0,0,1-.57-.63V4.35a2.2,2.2,0,0,1,2.31-2.42c1.37,0,2.2.78,2.2,2.41V7.48Z"/><path class="cls-3" d="M20.37,1.27a.62.62,0,0,1-.62-.62A.63.63,0,1,1,21,.65.62.62,0,0,1,20.37,1.27Zm1.15,6.26a1.43,1.43,0,0,1-1.63-1.62V2h.28a.66.66,0,0,1,.64.73v3c0,.68.34.9.86.9h.39V7A.5.5,0,0,1,21.52,7.53Z"/><path class="cls-4" d="M25.43,7.59A2.54,2.54,0,0,1,22.9,4.86c0-1.81,1-2.92,2.53-2.92a2.47,2.47,0,0,1,2.45,2.71C27.88,6.49,26.91,7.59,25.43,7.59Zm-.14-4.77c-.87,0-1.45.71-1.45,1.85s.61,2,1.68,2,1.41-.76,1.41-1.83C26.93,3.51,26.37,2.82,25.29,2.82Z"/><path class="cls-5" d="M33.57,7.48a.52.52,0,0,1-.58-.6V4.38c0-1.14-.42-1.57-1.39-1.57-.81,0-1.28.45-1.28,1.57v3.1H30a.55.55,0,0,1-.57-.63V4.35a2.2,2.2,0,0,1,2.31-2.42c1.37,0,2.19.78,2.19,2.41V7.48Z"/></g></g></svg>